<?xml version="1.0" standalone="no"?>
<!DOCTYPE svg PUBLIC "-//W3C//DTD SVG 1.1//EN" "http://www.w3.org/Graphics/SVG/1.1/DTD/svg11.dtd" >
<svg>
<metadata>
Created by FontForge 20090622 at Tue Dec 13 10:48:10 2016
 By ffonts
Copyright (c) 2013 by Joan Alegret. All rights reserved.
</metadata>
<defs>
<font id="Muro-Slant" horiz-adv-x="522" >
  <font-face 
    font-family="Muro"
    font-weight="400"
    font-stretch="normal"
    units-per-em="1000"
    panose-1="0 0 0 0 0 0 0 0 0 0"
    ascent="750"
    descent="-250"
    x-height="714"
    cap-height="714"
    bbox="-70 -235 1158.2 960"
    underline-thickness="50"
    underline-position="-50"
    unicode-range="U+0020-U+2212"
  />
<missing-glyph horiz-adv-x="289" 
 />
    <glyph glyph-name=".notdef" horiz-adv-x="289" 
 />
    <glyph glyph-name="T" unicode="T" horiz-adv-x="505" 
d="M387 575l-81 -575h-159l81 575h-143l20 139h445l-20 -139h-143z" />
    <glyph glyph-name="F" unicode="F" horiz-adv-x="392" 
d="M163 0h-159l101 714h332l-20 -139h-173l-20 -146h123l-20 -139h-123z" />
    <glyph glyph-name="I" unicode="I" horiz-adv-x="219" 
d="M105 714h159l-101 -714h-159z" />
    <glyph glyph-name="H" unicode="H" horiz-adv-x="485" 
d="M371 714h159l-101 -714h-159l40 280h-107l-40 -280h-159l101 714h159l-42 -295h107z" />
    <glyph glyph-name="O" unicode="O" 
d="M318 587c-50 0 -61 -37 -89 -231c-27 -198 -26 -229 24 -229s61 31 88 229c28 194 27 231 -23 231zM337 726c215 0 216 -110 179 -370c-37 -269 -67 -368 -282 -368s-217 99 -180 368c37 260 68 370 283 370z" />
    <glyph glyph-name="Q" unicode="Q" horiz-adv-x="544" 
d="M60 356c36 260 78 370 293 370c216 0 227 -110 191 -370c-33 -235 -71 -348 -239 -368c12 -20 34 -35 66 -35c19 0 41 3 66 9c0 0 -16 -115 -17 -115c-33 -6 -62 -9 -87 -9c-93 0 -143 56 -130 149c-171 16 -178 120 -143 369zM235 356c-28 -198 -28 -238 32 -238
c61 0 74 45 101 238c27 194 26 231 -35 231c-60 0 -71 -37 -98 -231z" />
    <glyph glyph-name="B" unicode="B" horiz-adv-x="491" 
d="M163 0h-159l101 714h159c187 0 245 -48 224 -198c-12 -82 -34 -132 -84 -160c42 -30 74 -54 59 -163c-24 -167 -125 -193 -300 -193zM207 310l-25 -180c77 0 114 10 125 90c12 80 -23 90 -100 90zM246 585l-26 -180c77 0 95 10 106 90s-3 90 -80 90z" />
    <glyph glyph-name="R" unicode="R" horiz-adv-x="485" 
d="M259 269h-58l-38 -269h-159l101 714h159c187 0 242 -68 221 -218c-11 -82 -35 -142 -85 -170c75 -65 20 -244 29 -326h-159c-4 70 43 207 -11 269zM246 585l-30 -210c77 0 96 20 107 100s0 110 -77 110z" />
    <glyph glyph-name="P" unicode="P" horiz-adv-x="471" 
d="M196 229l-33 -229h-159l101 714h159c187 0 239 -88 217 -248c-21 -150 -98 -237 -285 -237zM246 585l-33 -230c77 0 98 30 109 110s1 120 -76 120z" />
    <glyph glyph-name="U" unicode="U" 
d="M253 119c60 0 74 40 96 198l56 397h162l-56 -397c-39 -279 -92 -329 -277 -329s-224 50 -185 329l56 397h162l-56 -397c-22 -158 -18 -198 42 -198z" />
    <glyph glyph-name="C" unicode="C" horiz-adv-x="520" 
d="M254 127c44 0 60 43 70 109h174c-21 -147 -98 -248 -254 -248c-211 0 -229 89 -190 368c38 270 86 370 293 370c156 0 205 -101 185 -248h-174c9 64 6 109 -38 109c-50 0 -63 -37 -91 -231c-27 -198 -25 -229 25 -229z" />
    <glyph glyph-name="b" unicode="b" horiz-adv-x="491" 
d="M163 0h-159l101 714h159c187 0 245 -48 224 -198c-12 -82 -34 -132 -84 -160c42 -30 74 -54 59 -163c-24 -167 -125 -193 -300 -193zM207 310l-25 -180c77 0 114 10 125 90c12 80 -23 90 -100 90zM246 585l-26 -180c77 0 95 10 106 90s-3 90 -80 90z" />
    <glyph glyph-name="c" unicode="c" horiz-adv-x="520" 
d="M254 127c44 0 60 43 70 109h174c-21 -147 -98 -248 -254 -248c-211 0 -229 89 -190 368c38 270 86 370 293 370c156 0 205 -101 185 -248h-174c9 64 6 109 -38 109c-50 0 -63 -37 -91 -231c-27 -198 -25 -229 25 -229z" />
    <glyph glyph-name="e" unicode="e" horiz-adv-x="392" 
d="M244 575l-20 -141h123l-19 -139h-123l-22 -156h173l-20 -139h-332l101 714h332l-20 -139h-173z" />
    <glyph glyph-name="f" unicode="f" horiz-adv-x="392" 
d="M163 0h-159l101 714h332l-20 -139h-173l-20 -146h123l-20 -139h-123z" />
    <glyph glyph-name="D" unicode="D" horiz-adv-x="491" 
d="M484 345l3 24c-40 -287 -91 -369 -294 -369h-189l101 714h189c203 0 230 -82 190 -369zM328 369l-3 -24c33 232 18 240 -79 240l-64 -456c97 0 114 8 146 240z" />
    <glyph glyph-name="G" unicode="G" horiz-adv-x="520" 
d="M464 0h-51l-6 47c-41 -37 -97 -59 -163 -59c-211 0 -229 89 -190 368c38 270 86 370 293 370c156 0 205 -101 185 -248h-174c9 64 6 109 -38 109c-50 0 -63 -37 -91 -231c-27 -198 -25 -229 25 -229c42 0 60 39 68 101l5 31h-57l18 129h231z" />
    <glyph glyph-name="N" unicode="N" horiz-adv-x="542" 
d="M428 714h159l-101 -714h-159l-114 353l-50 -353h-159l101 714h158l112 -373z" />
    <glyph glyph-name="S" unicode="S" horiz-adv-x="472" 
d="M296 587c-22 0 -32 -13 -40 -70c-18 -126 211 -118 182 -326c-17 -120 -46 -203 -230 -203c-172 0 -190 109 -169 256h174c-9 -64 -17 -117 14 -117c24 0 32 25 37 65c19 132 -207 115 -177 329c20 147 70 205 232 205c146 0 185 -101 165 -248h-174
c12 87 11 109 -14 109z" />
    <glyph glyph-name="d" unicode="d" horiz-adv-x="491" 
d="M484 345l3 24c-40 -287 -91 -369 -294 -369h-189l101 714h189c203 0 230 -82 190 -369zM328 369l-3 -24c33 232 18 240 -79 240l-64 -456c97 0 114 8 146 240z" />
    <glyph glyph-name="g" unicode="g" horiz-adv-x="520" 
d="M464 0h-51l-6 47c-41 -37 -97 -59 -163 -59c-211 0 -229 89 -190 368c38 270 86 370 293 370c156 0 205 -101 185 -248h-174c9 64 6 109 -38 109c-50 0 -63 -37 -91 -231c-27 -198 -25 -229 25 -229c42 0 60 39 68 101l5 31h-57l18 129h231z" />
    <glyph glyph-name="h" unicode="h" horiz-adv-x="485" 
d="M371 714h159l-101 -714h-159l40 280h-107l-40 -280h-159l101 714h159l-42 -295h107z" />
    <glyph glyph-name="u" unicode="u" 
d="M253 119c60 0 74 40 96 198l56 397h162l-56 -397c-39 -279 -92 -329 -277 -329s-224 50 -185 329l56 397h162l-56 -397c-22 -158 -18 -198 42 -198z" />
    <glyph glyph-name="t" unicode="t" horiz-adv-x="505" 
d="M387 575l-81 -575h-159l81 575h-143l20 139h445l-20 -139h-143z" />
    <glyph glyph-name="s" unicode="s" horiz-adv-x="472" 
d="M296 587c-22 0 -32 -13 -40 -70c-18 -126 211 -118 182 -326c-17 -120 -46 -203 -230 -203c-172 0 -190 109 -169 256h174c-9 -64 -17 -117 14 -117c24 0 32 25 37 65c19 132 -207 115 -177 329c20 147 70 205 232 205c146 0 185 -101 165 -248h-174
c12 87 11 109 -14 109z" />
    <glyph glyph-name="r" unicode="r" horiz-adv-x="485" 
d="M259 269h-58l-38 -269h-159l101 714h159c187 0 242 -68 221 -218c-11 -82 -35 -142 -85 -170c75 -65 20 -244 29 -326h-159c-4 70 43 207 -11 269zM246 585l-30 -210c77 0 96 20 107 100s0 110 -77 110z" />
    <glyph glyph-name="q" unicode="q" horiz-adv-x="544" 
d="M60 356c36 260 78 370 293 370c216 0 227 -110 191 -370c-33 -235 -71 -348 -239 -368c12 -20 34 -35 66 -35c19 0 41 3 66 9c0 0 -16 -115 -17 -115c-33 -6 -62 -9 -87 -9c-93 0 -143 56 -130 149c-171 16 -178 120 -143 369zM235 356c-28 -198 -28 -238 32 -238
c61 0 74 45 101 238c27 194 26 231 -35 231c-60 0 -71 -37 -98 -231z" />
    <glyph glyph-name="p" unicode="p" horiz-adv-x="471" 
d="M196 229l-33 -229h-159l101 714h159c187 0 239 -88 217 -248c-21 -150 -98 -237 -285 -237zM246 585l-33 -230c77 0 98 30 109 110s1 120 -76 120z" />
    <glyph glyph-name="o" unicode="o" 
d="M318 587c-50 0 -61 -37 -89 -231c-27 -198 -26 -229 24 -229s61 31 88 229c28 194 27 231 -23 231zM337 726c215 0 216 -110 179 -370c-37 -269 -67 -368 -282 -368s-217 99 -180 368c37 260 68 370 283 370z" />
    <glyph glyph-name="n" unicode="n" horiz-adv-x="542" 
d="M428 714h159l-101 -714h-159l-114 353l-50 -353h-159l101 714h158l112 -373z" />
    <glyph glyph-name="m" unicode="m" horiz-adv-x="583" 
d="M368 0l46 322l-98 -322h-99l-8 322l-46 -322h-159l101 714h169l40 -374l145 374h169l-101 -714h-159z" />
    <glyph glyph-name="l" unicode="l" horiz-adv-x="382" 
d="M264 714l-81 -575h163l-20 -139h-322l101 714h159z" />
    <glyph glyph-name="J" unicode="J" horiz-adv-x="476" 
d="M39 245h175c-14 -101 -1 -118 30 -118c23 0 38 15 68 229l50 358h159l-50 -358c-40 -286 -66 -368 -247 -368c-182 0 -210 79 -185 257z" />
    <glyph glyph-name="i" unicode="i" horiz-adv-x="219" 
d="M105 714h159l-101 -714h-159z" />
    <glyph glyph-name="j" unicode="j" horiz-adv-x="476" 
d="M39 245h175c-14 -101 -1 -118 30 -118c23 0 38 15 68 229l50 358h159l-50 -358c-40 -286 -66 -368 -247 -368c-182 0 -210 79 -185 257z" />
    <glyph glyph-name="K" unicode="K" horiz-adv-x="529" 
d="M105 714h159l-44 -312l162 311h192l-237 -357l136 -356h-192l-74 313l-44 -313h-159z" />
    <glyph glyph-name="k" unicode="k" horiz-adv-x="529" 
d="M105 714h159l-44 -312l162 311h192l-237 -357l136 -356h-192l-74 313l-44 -313h-159z" />
    <glyph glyph-name="V" unicode="V" horiz-adv-x="559" 
d="M435 714h169l-271 -714h-159l-69 714h169l12 -479z" />
    <glyph glyph-name="W" unicode="W" horiz-adv-x="809" 
d="M685 714h169l-251 -714h-159l-14 364l-117 -364h-159l-49 714h169l-1 -431l142 431h129l19 -431z" />
    <glyph glyph-name="v" unicode="v" horiz-adv-x="559" 
d="M435 714h169l-271 -714h-159l-69 714h169l12 -479z" />
    <glyph glyph-name="w" unicode="w" horiz-adv-x="809" 
d="M685 714h169l-251 -714h-159l-14 364l-117 -364h-159l-49 714h169l-1 -431l142 431h129l19 -431z" />
    <glyph glyph-name="X" unicode="X" horiz-adv-x="569" 
d="M435 714h179l-215 -357l114 -357h-179l-46 213l-105 -213h-179l216 357l-115 357h179l45 -214z" />
    <glyph glyph-name="Y" unicode="Y" horiz-adv-x="568" 
d="M338 0h-160l45 319l-118 395h168l51 -244l121 244h168l-230 -395z" />
    <glyph glyph-name="x" unicode="x" horiz-adv-x="569" 
d="M435 714h179l-215 -357l114 -357h-179l-46 213l-105 -213h-179l216 357l-115 357h179l45 -214z" />
    <glyph glyph-name="y" unicode="y" horiz-adv-x="568" 
d="M338 0h-160l45 319l-118 395h168l51 -244l121 244h168l-230 -395z" />
    <glyph glyph-name="Z" unicode="Z" horiz-adv-x="480" 
d="M408 0h-404l20 139l304 436h-213l20 139h390l-20 -139l-312 -436h235z" />
    <glyph glyph-name="z" unicode="z" horiz-adv-x="480" 
d="M408 0h-404l20 139l304 436h-213l20 139h390l-20 -139l-312 -436h235z" />
    <glyph glyph-name="acute" unicode="&#xb4;" horiz-adv-x="345" 
d="M222 674h-149l120 118h187z" />
    <glyph glyph-name="Aacute" unicode="&#xc1;" horiz-adv-x="539" 
d="M239 714h159l59 -714h-159l-2 109h-125l-34 -109h-159zM286 489l-76 -251h82zM399 756h-149l120 118h187z" />
    <glyph glyph-name="grave" unicode="`" horiz-adv-x="345" 
d="M364 674h-149l-126 118h187z" />
    <glyph glyph-name="Agrave" unicode="&#xc0;" horiz-adv-x="539" 
d="M265 714h159l59 -714h-159l-2 109h-125l-34 -109h-159zM312 489l-76 -251h82zM401 756h-149l-126 118h187z" />
    <glyph glyph-name="Yacute" unicode="&#xdd;" horiz-adv-x="568" 
d="M338 0h-160l45 319l-118 395h168l51 -244l121 244h168l-230 -395zM411 756h-149l120 118h187z" />
    <glyph glyph-name="AE" unicode="&#xc6;" horiz-adv-x="666" 
d="M518 575l-20 -141h123l-19 -139h-123l-22 -156h173l-20 -139h-309l17 119h-113l-47 -119h-158l300 714h411l-20 -139h-173zM383 576l-140 -338h93z" />
    <glyph glyph-name="cedilla" unicode="&#xb8;" horiz-adv-x="225" 
d="M-3 -196l25 58s35 -17 65 -17c25 0 38 6 41 27c3 20 -7 29 -34 29c-17 0 -39 -4 -39 -4l34 95h59l-14 -39c37 0 71 -20 62 -81c-8 -57 -49 -89 -118 -89c-41 0 -81 21 -81 21z" />
    <glyph glyph-name="Ccedilla" unicode="&#xc7;" horiz-adv-x="520" 
d="M262 127c44 0 60 43 69 109h174c-20 -138 -89 -236 -227 -247l-13 -36c37 0 71 -20 63 -81c-8 -57 -50 -89 -119 -89c-41 0 -82 21 -82 21l26 58s35 -17 65 -17c25 0 39 6 42 27c2 20 -7 29 -34 29c-17 0 -40 -4 -40 -4l33 92c-181 9 -195 102 -157 367
c38 270 86 370 293 370c156 0 204 -101 184 -248h-174c9 64 6 109 -38 109c-50 0 -63 -37 -90 -231c-28 -198 -25 -229 25 -229z" />
    <glyph glyph-name="A" unicode="A" horiz-adv-x="539" 
d="M265 714h159l59 -714h-159l-2 109h-125l-34 -109h-159zM312 489l-76 -251h82z" />
    <glyph glyph-name="M" unicode="M" horiz-adv-x="583" 
d="M368 0l46 322l-98 -322h-99l-8 322l-46 -322h-159l101 714h169l40 -374l145 374h169l-101 -714h-159z" />
    <glyph glyph-name="L" unicode="L" horiz-adv-x="382" 
d="M264 714l-81 -575h163l-20 -139h-322l101 714h159z" />
    <glyph glyph-name="E" unicode="E" horiz-adv-x="392" 
d="M244 575l-20 -141h123l-19 -139h-123l-22 -156h173l-20 -139h-332l101 714h332l-20 -139h-173z" />
    <glyph glyph-name="quotesingle" unicode="'" horiz-adv-x="192" 
d="M75 484l13 230h132l-53 -230h-92z" />
    <glyph glyph-name="quotedbl" unicode="&#x22;" horiz-adv-x="352" 
d="M75 484l13 230h132l-53 -230h-92zM235 484l13 230h132l-53 -230h-92z" />
    <glyph glyph-name="quotedblleft" unicode="&#x201c;" horiz-adv-x="352" 
d="M75 484l13 230h132l-53 -230h-92zM235 484l13 230h132l-53 -230h-92z" />
    <glyph glyph-name="quotedblright" unicode="&#x201d;" horiz-adv-x="352" 
d="M75 484l13 230h132l-53 -230h-92zM235 484l13 230h132l-53 -230h-92z" />
    <glyph glyph-name="quotedblbase" unicode="&#x201e;" horiz-adv-x="352" 
d="M36 -80l12 230h132l-52 -230h-92zM196 -80l12 230h132l-52 -230h-92z" />
    <glyph glyph-name="comma" unicode="," horiz-adv-x="192" 
d="M36 -80l12 230h132l-52 -230h-92z" />
    <glyph glyph-name="quotesinglbase" unicode="&#x201a;" horiz-adv-x="192" 
d="M36 -80l12 230h132l-52 -230h-92z" />
    <glyph glyph-name="semicolon" unicode=";" horiz-adv-x="196" 
d="M27 -80l13 230h132l-53 -230h-92zM64 321l18 132h132l-18 -132h-132z" />
    <glyph glyph-name="period" unicode="." horiz-adv-x="212" 
d="M35 0l18 132h132l-18 -132h-132z" />
    <glyph glyph-name="colon" unicode=":" horiz-adv-x="196" 
d="M61 321l18 132h132l-18 -132h-132zM16 0l18 132h132l-18 -132h-132z" />
    <glyph glyph-name="ellipsis" unicode="&#x2026;" horiz-adv-x="622" 
d="M29 0l18 132h132l-18 -132h-132zM240 0l18 132h132l-18 -132h-132zM451 0l18 132h132l-18 -132h-132z" />
    <glyph glyph-name="bullet" unicode="&#x2022;" horiz-adv-x="317" 
d="M61 331c9 67 70 121 137 121s113 -54 104 -121c-10 -67 -71 -120 -138 -120s-113 53 -103 120z" />
    <glyph glyph-name="endash" unicode="&#x2013;" horiz-adv-x="455" 
d="M50 291l17 120h387l-17 -120h-387z" />
    <glyph glyph-name="emdash" unicode="&#x2014;" horiz-adv-x="685" 
d="M50 291l17 120h617l-17 -120h-617z" />
    <glyph glyph-name="bracketleft" unicode="[" horiz-adv-x="308" 
d="M5 -194l141 1007h224l-14 -99h-105l-114 -809h105l-13 -99h-224z" />
    <glyph glyph-name="bracketright" unicode="]" horiz-adv-x="308" 
d="M346 813l-141 -1007h-223l13 99h104l114 809h-105l14 99h224z" />
    <glyph glyph-name="underscore" unicode="_" horiz-adv-x="547" 
d="M29 0l17 120h479l-17 -120h-479z" />
    <glyph glyph-name="at" unicode="@" horiz-adv-x="774" 
d="M557 187c-106 0 -120 43 -120 43s-30 -36 -100 -36s-110 50 -97 146c17 117 96 182 204 182c72 0 130 -17 130 -17s-14 -80 -22 -140c-8 -57 0 -75 30 -75c48 0 68 40 79 117c18 130 -26 228 -193 228c-168 0 -270 -119 -292 -278c-26 -181 56 -279 222 -279
s278 76 278 76l26 -95s-152 -80 -318 -80c-251 0 -363 141 -329 378c33 237 189 381 427 381c246 0 317 -163 294 -331c-15 -107 -81 -220 -219 -220zM442 301l6 43c6 46 15 85 15 85c-1 0 -18 1 -29 1c-31 0 -79 -10 -90 -88c-7 -52 12 -66 35 -66c36 0 63 25 63 25z" />
    <glyph glyph-name="equal" unicode="=" horiz-adv-x="395" 
d="M62 356l18 130h327l-18 -130h-327zM30 126l18 130h327l-18 -130h-327z" />
    <glyph glyph-name="less" unicode="&#x3c;" horiz-adv-x="416" 
d="M60 310l12 81l364 230l-19 -140l-232 -131l195 -130l-20 -140z" />
    <glyph glyph-name="greater" unicode="&#x3e;" horiz-adv-x="416" 
d="M404 391l-12 -81l-364 -230l20 140l231 130l-194 131l19 140z" />
    <glyph glyph-name="guillemotleft" unicode="&#xab;" horiz-adv-x="461" 
d="M178 358l59 -304h-120l-60 304l145 304h120zM352 358l59 -304h-120l-60 304l145 304h120z" />
    <glyph glyph-name="guillemotright" unicode="&#xbb;" horiz-adv-x="461" 
d="M188 54l145 304l-60 304h120l61 -304l-146 -304h-120zM14 54l145 304l-60 304h120l61 -304l-146 -304h-120z" />
    <glyph glyph-name="OE" unicode="&#x152;" horiz-adv-x="725" 
d="M547 575l-20 -141h153l-18 -129h-153l-23 -166h203l-20 -139h-434c-215 0 -218 87 -181 356c37 260 67 358 282 358h434l-20 -139h-203zM319 596c-50 0 -62 -46 -90 -240c-27 -198 -27 -238 23 -238s62 40 89 238c28 194 28 240 -22 240z" />
    <glyph glyph-name="Euro" unicode="&#x20ac;" horiz-adv-x="525" 
d="M52 394l11 80h67c37 185 96 252 273 252c98 0 160 -29 160 -29l-58 -136s-44 23 -97 23c-52 0 -79 -16 -102 -110h193l-11 -80h-197c-3 -13 -4 -27 -6 -42l-5 -33h197l-11 -80h-194c-5 -98 20 -109 73 -109s103 23 103 23l20 -136s-70 -29 -168 -29
c-180 0 -220 61 -204 251h-66l11 80h64l5 33l6 42h-64z" />
    <glyph glyph-name="backslash" unicode="\" horiz-adv-x="407" 
d="M109 714h129l109 -714h-129z" />
    <glyph glyph-name="slash" unicode="/" horiz-adv-x="407" 
d="M319 714h129l-311 -714h-129z" />
    <glyph glyph-name="hyphen" unicode="-" horiz-adv-x="415" 
d="M50 291l17 120h347l-17 -120h-347z" />
    <glyph glyph-name="dagger" unicode="&#x2020;" horiz-adv-x="403" 
d="M207 714h139l-25 -175h100l-14 -100h-100l-62 -439h-139l62 439h-100l14 100h100z" />
    <glyph glyph-name="daggerdbl" unicode="&#x2021;" horiz-adv-x="403" 
d="M374 204h-100l-29 -204h-139l29 204h-100l14 100h100l19 135h-100l14 100h100l25 175h139l-25 -175h100l-14 -100h-100l-19 -135h100z" />
    <glyph glyph-name="a" unicode="a" horiz-adv-x="539" 
d="M265 714h159l59 -714h-159l-2 109h-125l-34 -109h-159zM312 489l-76 -251h82z" />
    <glyph glyph-name="sterling" unicode="&#xa3;" horiz-adv-x="513" 
d="M29 293l11 80h71l26 181c16 112 94 172 203 172c163 0 208 -80 184 -248h-174c13 88 10 109 -21 109c-17 0 -30 -9 -33 -33l-26 -181h212l-11 -80h-212l-11 -78c-7 -54 -51 -83 -56 -86h283l-18 -129h-447l18 129s53 29 61 86l11 78h-71z" />
    <glyph glyph-name="one" unicode="1" horiz-adv-x="384" 
d="M226 714h158l-101 -714h-159l67 474s-57 -63 -139 -63l23 159c88 0 151 144 151 144z" />
    <glyph glyph-name="zero" unicode="0" horiz-adv-x="502" 
d="M308 587c-40 0 -54 -57 -79 -231c-25 -178 -26 -229 14 -229s53 51 78 229c25 174 27 231 -13 231zM327 726c215 0 203 -130 169 -370c-35 -249 -57 -368 -272 -368s-205 119 -170 368c34 240 58 370 273 370z" />
    <glyph glyph-name="seven" unicode="7" horiz-adv-x="445" 
d="M86 577l19 137h385l-244 -714h-168l197 577h-189z" />
    <glyph glyph-name="dieresis" unicode="&#xa8;" horiz-adv-x="359" 
d="M76 671l16 115h115l-16 -115h-115zM256 671l16 115h115l-16 -115h-115z" />
    <glyph glyph-name="Adieresis" unicode="&#xc4;" horiz-adv-x="539" 
d="M239 714h159l59 -714h-159l-2 109h-125l-34 -109h-159zM286 489l-76 -251h82zM176 753l16 115h115l-16 -115h-115zM356 753l16 115h115l-16 -115h-115z" />
    <glyph glyph-name="ydieresis" unicode="&#xff;" horiz-adv-x="568" 
d="M178 0h160l45 319l230 395h-168l-121 -244l-51 244h-168l118 -395zM186 753l16 115h115l-16 -115h-115zM366 753l16 115h115l-16 -115h-115z" />
    <glyph glyph-name="yacute" unicode="&#xfd;" horiz-adv-x="568" 
d="M338 0h-160l45 319l-118 395h168l51 -244l121 244h168l-230 -395zM402 756h-149l120 118h187z" />
    <glyph glyph-name="Oslash" unicode="&#xd8;" horiz-adv-x="538" 
d="M345 726c56 0 98 -8 128 -24l24 33h129l-89 -125c12 -60 3 -143 -13 -254c-37 -269 -67 -368 -282 -368c-57 0 -99 7 -130 22l-22 -31h-128l87 123c-11 58 -2 141 13 254c37 260 68 370 283 370zM326 587c-50 0 -61 -37 -89 -231c-27 -198 -26 -229 24 -229s61 31 88 229
c28 194 27 231 -23 231z" />
    <glyph glyph-name="yen" unicode="&#xa5;" horiz-adv-x="568" 
d="M104 220l14 100h104l-117 394h168l51 -244l121 244h168l-230 -394h102l-14 -100h-102l-6 -44h102l-14 -100h-102l-11 -76h-160l11 76h-105l14 100h105l6 44h-105z" />
    <glyph glyph-name="Ydieresis" unicode="&#x178;" horiz-adv-x="568" 
d="M178 0h160l45 319l230 395h-168l-121 -244l-51 244h-168l118 -395zM189 753l16 115h115l-16 -115h-115zM369 753l16 115h115l-16 -115h-115z" />
    <glyph glyph-name="ae" unicode="&#xe6;" horiz-adv-x="666" 
d="M518 575l-20 -141h123l-19 -139h-123l-22 -156h173l-20 -139h-309l17 119h-113l-47 -119h-158l300 714h411l-20 -139h-173zM383 576l-140 -338h93z" />
    <glyph glyph-name="oe" unicode="&#x153;" horiz-adv-x="725" 
d="M547 575l-20 -141h153l-18 -129h-153l-23 -166h203l-20 -139h-434c-215 0 -218 87 -181 356c37 260 67 358 282 358h434l-20 -139h-203zM319 596c-50 0 -62 -46 -90 -240c-27 -198 -27 -238 23 -238s62 40 89 238c28 194 28 240 -22 240z" />
    <glyph glyph-name="parenleft" unicode="(" horiz-adv-x="330" 
d="M223 293c-37 -267 44 -463 44 -463l-76 -55s-159 205 -115 518s261 518 261 518l60 -55s-136 -196 -174 -463z" />
    <glyph glyph-name="parenright" unicode=")" horiz-adv-x="330" 
d="M147 293c38 267 -44 463 -44 463l76 55s159 -205 115 -518s-261 -518 -261 -518l-59 55s136 196 173 463z" />
    <glyph glyph-name="braceleft" unicode="{" horiz-adv-x="376" 
d="M75 376l4 27c40 13 76 62 94 190c12 85 49 218 255 220l-14 -99s-104 1 -116 -82l-14 -99c-6 -40 -51 -138 -113 -143c60 -5 78 -103 73 -143l-14 -99c-12 -82 94 -81 94 -81l-14 -99c-206 1 -206 134 -194 219c18 126 -5 174 -41 189z" />
    <glyph glyph-name="braceright" unicode="}" horiz-adv-x="376" 
d="M355 403l-4 -27c-40 -15 -77 -63 -95 -189c-12 -85 -48 -218 -254 -219l14 99s105 0 116 81l14 99c5 40 51 138 113 143c-60 5 -79 103 -73 143l14 99c12 83 -94 82 -94 82l14 99c206 -2 205 -135 193 -220c-18 -128 6 -177 42 -190z" />
    <glyph glyph-name="question" unicode="?" horiz-adv-x="505" 
d="M147 250l7 54c27 189 176 168 187 246c9 64 3 79 -29 79s-49 -45 -58 -109h-174c20 147 91 248 247 248c179 0 215 -67 194 -214c-21 -152 -180 -126 -198 -250l-7 -54h-169zM112 0l23 169h169l-23 -169h-169z" />
    <glyph glyph-name="questiondown" unicode="&#xbf;" horiz-adv-x="505" 
d="M398 335l-7 -54c-27 -189 -176 -168 -187 -246c-9 -64 -7 -79 33 -79c39 0 46 45 55 109h174c-21 -147 -92 -248 -248 -248c-179 0 -215 67 -194 214c21 152 180 126 198 250l7 54h169zM434 585l-24 -169h-168l24 169h168z" />
    <glyph glyph-name="exclamdown" unicode="&#xa1;" horiz-adv-x="247" 
d="M81 416l24 169h169l-24 -169h-169zM86 348h139l-47 -478h-178z" />
    <glyph glyph-name="exclam" unicode="!" horiz-adv-x="247" 
d="M206 169l-24 -169h-169l24 169h169zM201 237h-139l47 478h179z" />
    <glyph glyph-name="circumflex" unicode="&#x2c6;" horiz-adv-x="486" 
d="M247 791h112l136 -118h-167l-35 45l-47 -45h-167z" />
    <glyph glyph-name="caron" unicode="&#x2c7;" horiz-adv-x="486" 
d="M343 673h-112l-136 118h167l35 -45l47 45h167z" />
    <glyph glyph-name="zcaron" unicode="&#x17e;" horiz-adv-x="481" 
d="M408 0h-404l20 139l304 436h-213l20 139h390l-20 -139l-312 -436h235zM360 755h-112l-136 118h167l35 -45l47 45h167z" />
    <glyph glyph-name="Acircumflex" unicode="&#xc2;" horiz-adv-x="539" 
d="M239 714h159l59 -714h-159l-2 109h-125l-34 -109h-159zM286 489l-76 -251h82zM285 873h112l136 -118h-167l-35 45l-47 -45h-167z" />
    <glyph glyph-name="Eth" unicode="&#xd0;" horiz-adv-x="536" 
d="M32 291l17 120h59l43 303h189c202 0 229 -81 189 -366c-37 -263 -92 -348 -290 -348h-189l41 291h-59zM228 129c93 0 114 13 143 216c33 232 18 240 -79 240l-25 -174h69l-17 -120h-69z" />
    <glyph glyph-name="bar" unicode="|" horiz-adv-x="214" 
d="M115 754h146l-113 -804h-146z" />
    <glyph glyph-name="asciicircum" unicode="^" horiz-adv-x="701" 
d="M361 712h101l224 -332h-150l-142 203l-199 -203h-150z" />
    <glyph glyph-name="percent" unicode="%" horiz-adv-x="803" 
d="M590 714h149l-471 -714h-149zM286 576c7 44 3 64 -21 64c-25 0 -32 -20 -39 -64c-6 -45 -4 -64 21 -64c24 0 33 19 39 64zM433 576c-12 -88 -67 -160 -199 -160s-167 72 -155 160c13 88 68 159 200 159s167 -71 154 -159zM626 139c6 44 3 64 -21 64
c-25 0 -33 -20 -39 -64c-6 -45 -4 -64 21 -64c24 0 33 19 39 64zM773 139c-12 -88 -68 -160 -200 -160s-166 72 -154 160s67 159 199 159s167 -71 155 -159z" />
    <glyph glyph-name="dollar" unicode="$" horiz-adv-x="517" 
d="M321 596c-40 0 -46 -15 -55 -79c-20 -138 257 -78 222 -326c-14 -99 -68 -174 -189 -196l-10 -75h-146l10 72c-118 22 -134 115 -116 243h174c-9 -64 -13 -110 28 -110c43 0 49 27 55 67c21 148 -241 92 -208 329c17 118 60 185 170 206l11 77h146l-10 -74
c109 -22 133 -115 116 -243h-174c10 78 14 109 -24 109z" />
    <glyph glyph-name="Ccircumflex" unicode="&#x108;" horiz-adv-x="520" 
d="M254 127c-50 0 -52 31 -25 229c28 194 41 231 91 231c44 0 47 -45 38 -109h174c20 147 -29 248 -185 248c-207 0 -255 -100 -293 -370c-39 -279 -21 -368 190 -368c156 0 233 101 254 248h-174c-10 -66 -26 -109 -70 -109zM279 873h112l136 -118h-167l-35 45l-47 -45
h-167z" />
    <glyph glyph-name="ccircumflex" unicode="&#x109;" horiz-adv-x="520" 
d="M254 127c-50 0 -52 31 -25 229c28 194 41 231 91 231c44 0 47 -45 38 -109h174c20 147 -29 248 -185 248c-207 0 -255 -100 -293 -370c-39 -279 -21 -368 190 -368c156 0 233 101 254 248h-174c-10 -66 -26 -109 -70 -109zM279 873h112l136 -118h-167l-35 45l-47 -45
h-167z" />
    <glyph glyph-name="Ccaron" unicode="&#x10c;" horiz-adv-x="520" 
d="M254 127c-50 0 -52 31 -25 229c28 194 41 231 91 231c44 0 47 -45 38 -109h174c20 147 -29 248 -185 248c-207 0 -255 -100 -293 -370c-39 -279 -21 -368 190 -368c156 0 233 101 254 248h-174c-10 -66 -26 -109 -70 -109zM375 755h-112l-136 118h167l35 -45l47 45h167z
" />
    <glyph glyph-name="ccaron" unicode="&#x10d;" horiz-adv-x="520" 
d="M254 127c-50 0 -52 31 -25 229c28 194 41 231 91 231c44 0 47 -45 38 -109h174c20 147 -29 248 -185 248c-207 0 -255 -100 -293 -370c-39 -279 -21 -368 190 -368c156 0 233 101 254 248h-174c-10 -66 -26 -109 -70 -109zM375 755h-112l-136 118h167l35 -45l47 45h167z
" />
    <glyph glyph-name="ccedilla" unicode="&#xe7;" horiz-adv-x="520" 
d="M262 127c44 0 60 43 69 109h174c-20 -139 -89 -236 -229 -247l-13 -36c37 0 71 -20 63 -81c-8 -57 -50 -89 -119 -89c-41 0 -82 21 -82 21l26 58s35 -17 65 -17c25 0 39 6 42 27c2 20 -7 29 -34 29c-17 0 -40 -4 -40 -4l33 92c-180 9 -192 103 -155 367
c38 270 86 370 293 370c156 0 204 -101 184 -248h-174c9 64 6 109 -38 109c-50 0 -63 -37 -90 -231c-28 -198 -25 -229 25 -229z" />
    <glyph glyph-name="cent" unicode="&#xa2;" horiz-adv-x="500" 
d="M251 168c39 0 49 43 59 109h174c-18 -127 -73 -219 -187 -242l-12 -85h-146l12 86c-126 27 -123 127 -96 320c26 184 55 291 186 320l11 78h146l-11 -75c108 -24 137 -116 119 -242h-174c9 64 10 109 -29 109c-45 0 -54 -56 -73 -190c-20 -138 -25 -188 21 -188z" />
    <glyph glyph-name="ring" unicode="&#x2da;" horiz-adv-x="310" 
d="M96 775c11 77 69 103 126 103s110 -26 99 -103s-70 -102 -127 -102s-109 25 -98 102zM182 775c-5 -33 -5 -46 19 -46c25 0 29 13 34 46c5 34 5 47 -20 47c-24 0 -28 -13 -33 -47z" />
    <glyph glyph-name="Aring" unicode="&#xc5;" horiz-adv-x="539" 
d="M236 776c11 77 69 103 126 103s110 -26 99 -103c-5 -36 -21 -61 -42 -77l59 -699h-159l-3 109h-125l-33 -109h-158l254 700c-16 16 -23 41 -18 76zM306 489l-76 -251h82zM322 776c-5 -33 -5 -46 19 -46c25 0 29 13 34 46c4 34 4 47 -21 47c-24 0 -28 -13 -32 -47z" />
    <glyph glyph-name="ogonek" unicode="&#x2db;" horiz-adv-x="258" 
d="M80 2h59s-30 -26 -35 -62c-4 -24 5 -31 28 -31c54 0 83 32 83 32l8 -67s-48 -39 -104 -39c-73 0 -95 34 -89 80c8 58 50 87 50 87z" />
    <glyph glyph-name="breve" unicode="&#x2d8;" horiz-adv-x="296" 
d="M233 773h86c-12 -73 -71 -99 -127 -99s-106 25 -98 99h86c-4 -31 -3 -43 20 -43s30 16 33 43z" />
    <glyph glyph-name="tilde" unicode="&#x2dc;" horiz-adv-x="454" 
d="M203 802c84 -1 98 -40 137 -40c18 0 27 10 31 37h90c-13 -96 -38 -127 -110 -127c-84 0 -97 40 -134 40c-19 0 -30 -10 -34 -38h-90c14 96 38 128 110 128z" />
    <glyph glyph-name="numbersign" unicode="#" horiz-adv-x="681" 
d="M111 424l15 109h110l67 181h129l-67 -181h124l67 181h129l-67 -181h82l-15 -109h-106l-52 -140h91l-15 -109h-115l-64 -175h-129l64 175h-124l-64 -175h-129l64 175h-77l15 109h101l52 140h-86zM326 424l-52 -140h124l52 140h-124z" />
    <glyph glyph-name="Lslash" unicode="&#x141;" horiz-adv-x="431" 
d="M313 714l-40 -285l169 72l-17 -120l-169 -72l-25 -180h163l-19 -129h-322l34 238l-65 -27l17 120l65 27l50 356h159z" />
    <glyph glyph-name="lslash" unicode="&#x142;" horiz-adv-x="431" 
d="M313 714l-40 -285l169 72l-17 -120l-169 -72l-25 -180h163l-19 -129h-322l34 238l-65 -27l17 120l65 27l50 356h159z" />
    <glyph glyph-name="florin" unicode="&#x192;" horiz-adv-x="417" 
d="M405 565c-61 0 -81 -4 -88 -56l-11 -80h123l-18 -129h-123l-42 -300c-25 -172 -75 -204 -268 -204l21 149c61 0 80 3 88 56l42 299h-75l18 129h75l11 81c24 172 75 204 269 204h32l-21 -149h-33z" />
    <glyph glyph-name="perthousand" unicode="&#x2030;" horiz-adv-x="1186" 
d="M590 714h149l-471 -714h-149zM286 576c7 44 3 64 -21 64c-25 0 -32 -20 -39 -64c-6 -45 -4 -64 21 -64c24 0 33 19 39 64zM433 576c-12 -88 -67 -160 -199 -160s-167 72 -155 160c13 88 68 159 200 159s167 -71 154 -159zM626 139c6 44 3 64 -21 64
c-25 0 -33 -20 -39 -64c-6 -45 -4 -64 21 -64c24 0 33 19 39 64zM773 139c-12 -88 -68 -160 -200 -160s-166 72 -154 160s67 159 199 159s167 -71 155 -159zM1009 139c6 44 3 64 -21 64c-25 0 -33 -20 -39 -64c-6 -45 -4 -64 21 -64c24 0 33 19 39 64zM1156 139
c-12 -88 -68 -160 -200 -160s-166 72 -154 160s67 159 199 159s167 -71 155 -159z" />
    <glyph glyph-name="mu" unicode="&#xb5;" 
d="M267 118c60 0 75 40 97 198l22 153h161l-66 -469h-99l-16 33c-24 -32 -58 -46 -117 -46c-26 0 -49 1 -69 4l-29 -209h-158l96 687h159l-22 -153c-22 -158 -19 -198 41 -198z" />
    <glyph glyph-name="oslash" unicode="&#xf8;" horiz-adv-x="538" 
d="M345 726c56 0 98 -8 128 -24l24 33h129l-89 -125c12 -60 3 -143 -13 -254c-37 -269 -67 -368 -282 -368c-57 0 -99 7 -130 22l-22 -31h-128l87 123c-11 58 -2 141 13 254c37 260 68 370 283 370zM326 587c-50 0 -61 -37 -89 -231c-27 -198 -26 -229 24 -229s61 31 88 229
c28 194 27 231 -23 231z" />
    <glyph glyph-name="degree" unicode="&#xb0;" horiz-adv-x="345" 
d="M239 607c5 35 2 51 -17 51c-20 0 -26 -16 -31 -51c-5 -36 -3 -52 17 -52c19 0 26 16 31 52zM357 607c-10 -71 -54 -129 -160 -129c-107 0 -135 58 -125 129s54 128 161 128c106 0 134 -57 124 -128z" />
    <glyph glyph-name="brokenbar" unicode="&#xa6;" horiz-adv-x="214" 
d="M208 370h-146l54 384h146zM145 -77h-145l53 384h146z" />
    <glyph glyph-name="plus" unicode="+" horiz-adv-x="475" 
d="M50 291l17 120h143l20 143h120l-20 -143h144l-17 -120h-144l-20 -144h-120l20 144h-143z" />
    <glyph glyph-name="multiply" unicode="&#xd7;" horiz-adv-x="455" 
d="M387 544l73 -85l-123 -109l93 -108l-97 -85l-93 109l-124 -109l-73 85l124 108l-94 109l97 85l94 -109z" />
    <glyph glyph-name="plusminus" unicode="&#xb1;" horiz-adv-x="435" 
d="M68 441l17 120h123l18 123h120l-18 -123h124l-17 -120h-124l-17 -124h-120l17 124h-123zM28 85l17 120h347l-17 -120h-347z" />
    <glyph glyph-name="trademark" unicode="&#x2122;" horiz-adv-x="498" 
d="M223 643l-27 -187h-83l27 187h-59l10 71h199l-10 -71h-57zM424 456l16 110l-37 -110h-40l-5 110l-16 -110h-64l37 258h74l17 -97l45 97h74l-37 -258h-64z" />
    <glyph glyph-name="asciitilde" unicode="~" horiz-adv-x="653" 
d="M459 289c-100 0 -113 57 -216 56c-73 0 -145 -70 -145 -70l-34 132s83 78 184 78c103 0 116 -57 216 -57c73 1 144 70 144 70l35 -132s-84 -78 -184 -77z" />
    <glyph glyph-name="thorn" unicode="&#xfe;" horiz-adv-x="472" 
d="M109 714h146l-13 -91h64c145 0 189 -64 168 -210c-20 -148 -80 -210 -225 -211h-66l-29 -202h-146zM274 497h-50l-23 -169h50c59 0 82 27 90 85c9 59 -9 84 -67 84z" />
    <glyph glyph-name="Thorn" unicode="&#xde;" horiz-adv-x="472" 
d="M109 714h146l-13 -91h64c145 0 189 -64 168 -210c-20 -148 -80 -210 -225 -211h-66l-29 -202h-146zM274 497h-50l-23 -169h50c59 0 82 27 90 85c9 59 -9 84 -67 84z" />
    <glyph glyph-name="eth" unicode="&#xf0;" horiz-adv-x="536" 
d="M32 291l17 120h59l43 303h189c202 0 229 -81 189 -366c-37 -263 -92 -348 -290 -348h-189l41 291h-59zM228 129c93 0 114 13 143 216c33 232 18 240 -79 240l-25 -174h69l-17 -120h-69z" />
    <glyph glyph-name="germandbls" unicode="&#xdf;" horiz-adv-x="569" 
d="M408 189c10 76 -137 73 -121 187c9 64 63 93 71 152c8 57 -7 76 -49 76c-37 0 -62 -19 -70 -76l-74 -528h-159l75 531c20 142 90 195 242 195c141 0 194 -67 175 -198c-12 -87 -44 -101 -51 -152c-8 -56 121 -56 103 -187c-17 -120 -93 -189 -217 -189
c-59 0 -113 24 -113 24l50 122s38 -21 81 -21c38 0 51 23 57 64z" />
    <glyph glyph-name="paragraph" unicode="&#xb6;" horiz-adv-x="496" 
d="M161 -130l61 434c-88 0 -162 58 -142 204c21 146 111 206 200 206h165l-118 -844h-166zM357 -130l118 843h70l-118 -843h-70z" />
    <glyph glyph-name="ordmasculine" unicode="&#xba;" horiz-adv-x="321" 
d="M171 584c-7 -50 -8 -65 21 -65c28 0 33 15 40 65s7 65 -22 65c-28 0 -32 -15 -39 -65zM71 584c14 100 82 130 148 130s127 -30 113 -130c-15 -100 -83 -130 -149 -130s-127 30 -112 130z" />
    <glyph glyph-name="quoteleft" unicode="&#x2018;" horiz-adv-x="192" 
d="M75 484l13 230h132l-53 -230h-92z" />
    <glyph glyph-name="quoteright" unicode="&#x2019;" horiz-adv-x="192" 
d="M75 484l13 230h132l-53 -230h-92z" />
    <glyph glyph-name="guilsinglleft" unicode="&#x2039;" horiz-adv-x="287" 
d="M178 358l59 -304h-120l-60 304l145 304h120z" />
    <glyph glyph-name="guilsinglright" unicode="&#x203a;" horiz-adv-x="287" 
d="M14 54l145 304l-60 304h120l61 -304l-146 -304h-120z" />
    <glyph glyph-name="minus" unicode="&#x2212;" horiz-adv-x="475" 
d="M457 291h-407l17 120h407z" />
    <glyph glyph-name="logicalnot" unicode="&#xac;" horiz-adv-x="674" 
d="M638 137h-120l27 193h-486l17 120h606z" />
    <glyph glyph-name="asterisk" unicode="*" horiz-adv-x="414" 
d="M221 606l-3 122h101l-37 -122l124 53l17 -96l-126 -20l71 -87l-91 -62l-41 109l-73 -109l-75 62l100 87l-119 20l48 96z" />
    <glyph glyph-name="divide" unicode="&#xf7;" horiz-adv-x="475" 
d="M213 464l19 132h132l-19 -132h-132zM162 103l19 132h132l-19 -132h-132zM433 289h-407l17 120h407z" />
    <glyph glyph-name="periodcentered" unicode="&#xb7;" horiz-adv-x="200" 
d="M51 312l18 132h132l-18 -132h-132z" />
    <glyph glyph-name="currency" unicode="&#xa4;" horiz-adv-x="471" 
d="M283 523c25 0 48 -7 67 -18l80 71l50 -56l-80 -71c10 -22 14 -48 10 -75c-4 -25 -13 -49 -28 -70l61 -71l-65 -58l-60 70c-24 -13 -51 -20 -78 -20c-25 0 -48 7 -68 18l-80 -71l-50 56l80 71c-10 22 -13 48 -9 75c3 25 13 49 28 70l-61 71l65 58l60 -70
c24 13 51 20 78 20zM250 300c42 0 79 32 85 74s-22 74 -63 74c-42 0 -78 -32 -84 -74s21 -74 62 -74z" />
    <glyph glyph-name="registered" unicode="&#xae;" horiz-adv-x="824" 
d="M59 357c29 209 222 378 431 378s354 -169 325 -378c-30 -209 -223 -378 -432 -378s-354 169 -324 378zM121 357c-25 -174 97 -316 271 -316s336 142 361 316c24 174 -98 316 -272 316s-336 -142 -360 -316zM428 328h-40l-24 -166h-93l60 428h97c137 0 185 -33 170 -137
c-8 -59 -47 -99 -91 -107c55 -72 55 -126 71 -184h-107c-10 50 -7 103 -43 166zM413 508l-16 -113c84 0 100 17 106 57c6 41 -6 56 -90 56z" />
    <glyph glyph-name="copyright" unicode="&#xa9;" horiz-adv-x="824" 
d="M59 357c29 209 222 378 431 378s354 -169 325 -378c-30 -209 -223 -378 -432 -378s-354 169 -324 378zM121 357c-25 -174 97 -316 271 -316s336 142 361 316c24 174 -98 316 -272 316s-336 -142 -360 -316zM360 356c17 119 36 147 97 147c57 0 64 -27 57 -80h98
c11 82 -13 166 -143 166c-138 0 -185 -70 -208 -233c-22 -163 5 -232 143 -233c130 0 178 84 189 166h-98c-7 -53 -23 -80 -79 -80c-61 0 -72 28 -56 147z" />
    <glyph glyph-name="section" unicode="&#xa7;" horiz-adv-x="500" 
d="M90 547c15 111 84 179 236 179c153 0 207 -96 190 -217h-165c10 72 -12 85 -50 85c-35 0 -55 -13 -60 -51c-12 -87 265 -92 243 -253c-8 -54 -34 -95 -71 -121c29 -28 46 -66 39 -120c-15 -101 -88 -184 -242 -184c-153 0 -204 86 -186 217h162c-10 -73 18 -85 53 -85
c34 0 55 12 60 44c12 90 -263 108 -241 268c8 54 33 95 70 121c-28 29 -46 62 -38 117zM325 290c4 30 -27 47 -65 66c-25 -9 -40 -26 -43 -47c-4 -29 27 -47 66 -65c23 9 39 25 42 46z" />
    <glyph glyph-name="ordfeminine" unicode="&#xaa;" horiz-adv-x="293" 
d="M53 458l113 253h77l43 -253h-77l-4 39h-61l-13 -39h-78zM194 631l-29 -81h35z" />
    <glyph glyph-name="ycircumflex" unicode="&#x177;" horiz-adv-x="568" 
d="M178 0h160l45 319l230 395h-168l-121 -244l-51 244h-168l118 -395zM297 873h112l136 -118h-167l-35 45l-47 -45h-167z" />
    <glyph glyph-name="wcircumflex" unicode="&#x175;" horiz-adv-x="809" 
d="M685 714h169l-251 -714h-159l-14 364l-117 -364h-159l-49 714h169l-1 -431l142 431h129l19 -431zM418 873h112l136 -118h-167l-35 45l-47 -45h-167z" />
    <glyph glyph-name="Ycircumflex" unicode="&#x176;" horiz-adv-x="568" 
d="M178 0h160l45 319l230 395h-168l-121 -244l-51 244h-168l118 -395zM297 873h112l136 -118h-167l-35 45l-47 -45h-167z" />
    <glyph glyph-name="Gcircumflex" unicode="&#x11c;" horiz-adv-x="520" 
d="M464 0h-51l-6 47c-41 -37 -97 -59 -163 -59c-211 0 -229 89 -190 368c38 270 86 370 293 370c156 0 205 -101 185 -248h-174c9 64 6 109 -38 109c-50 0 -63 -37 -91 -231c-27 -198 -25 -229 25 -229c42 0 60 39 68 101l5 31h-57l18 129h231zM280 873h112l136 -118h-167
l-35 45l-47 -45h-167z" />
    <glyph glyph-name="gcircumflex" unicode="&#x11d;" horiz-adv-x="520" 
d="M464 0h-51l-6 47c-41 -37 -97 -59 -163 -59c-211 0 -229 89 -190 368c38 270 86 370 293 370c156 0 205 -101 185 -248h-174c9 64 6 109 -38 109c-50 0 -63 -37 -91 -231c-27 -198 -25 -229 25 -229c42 0 60 39 68 101l5 31h-57l18 129h231zM280 873h112l136 -118h-167
l-35 45l-47 -45h-167z" />
    <glyph glyph-name="Hcircumflex" unicode="&#x124;" horiz-adv-x="485" 
d="M371 714h159l-101 -714h-159l40 280h-107l-40 -280h-159l101 714h159l-42 -295h107zM257 873h112l136 -118h-167l-35 45l-47 -45h-167z" />
    <glyph glyph-name="hcircumflex" unicode="&#x125;" horiz-adv-x="485" 
d="M371 714h159l-101 -714h-159l40 280h-107l-40 -280h-159l101 714h159l-42 -295h107zM257 873h112l136 -118h-167l-35 45l-47 -45h-167z" />
    <glyph glyph-name="Atilde" unicode="&#xc3;" horiz-adv-x="539" 
d="M239 714h159l59 -714h-159l-2 109h-125l-34 -109h-159zM286 489l-76 -251h82zM251 884c84 -1 98 -40 137 -40c18 0 27 10 31 37h90c-13 -96 -38 -127 -110 -127c-84 0 -97 40 -134 40c-19 0 -30 -10 -34 -38h-90c14 96 38 128 110 128z" />
    <glyph glyph-name="ntilde" unicode="&#xf1;" horiz-adv-x="542" 
d="M428 714h159l-101 -714h-159l-114 353l-50 -353h-159l101 714h158l112 -373zM259 884c84 -1 98 -40 137 -40c18 0 27 10 31 37h90c-13 -96 -38 -127 -110 -127c-84 0 -97 40 -134 40c-19 0 -30 -10 -34 -38h-90c14 96 38 128 110 128z" />
    <glyph glyph-name="Racute" unicode="&#x154;" horiz-adv-x="485" 
d="M259 269h-58l-38 -269h-159l101 714h159c187 0 242 -68 221 -218c-11 -82 -35 -142 -85 -170c75 -65 20 -244 29 -326h-159c-4 70 43 207 -11 269zM246 585l-30 -210c77 0 96 20 107 100s0 110 -77 110zM294 756h-149l120 118h187z" />
    <glyph glyph-name="racute" unicode="&#x155;" horiz-adv-x="485" 
d="M259 269h-58l-38 -269h-159l101 714h159c187 0 242 -68 221 -218c-11 -82 -35 -142 -85 -170c75 -65 20 -244 29 -326h-159c-4 70 43 207 -11 269zM246 585l-30 -210c77 0 96 20 107 100s0 110 -77 110zM294 756h-149l120 118h187z" />
    <glyph glyph-name="Rcaron" unicode="&#x158;" horiz-adv-x="487" 
d="M261 269h-58l-38 -269h-159l101 714h159c187 0 242 -68 221 -218c-11 -82 -35 -142 -85 -170c75 -65 20 -244 29 -326h-159c-4 70 43 207 -11 269zM248 585l-30 -210c77 0 96 20 107 100s0 110 -77 110zM348 755h-112l-136 118h167l35 -45l47 45h167z" />
    <glyph glyph-name="rcaron" unicode="&#x159;" horiz-adv-x="487" 
d="M261 269h-58l-38 -269h-159l101 714h159c187 0 242 -68 221 -218c-11 -82 -35 -142 -85 -170c75 -65 20 -244 29 -326h-159c-4 70 43 207 -11 269zM248 585l-30 -210c77 0 96 20 107 100s0 110 -77 110zM348 755h-112l-136 118h167l35 -45l47 45h167z" />
    <glyph glyph-name="Tcaron" unicode="&#x164;" horiz-adv-x="505" 
d="M387 575l-81 -575h-159l81 575h-143l20 139h445l-20 -139h-143zM362 755h-112l-136 118h167l35 -45l47 45h167z" />
    <glyph glyph-name="Utilde" unicode="&#x168;" 
d="M253 119c60 0 74 40 96 198l56 397h162l-56 -397c-39 -279 -92 -329 -277 -329s-224 50 -185 329l56 397h162l-56 -397c-22 -158 -18 -198 42 -198zM251 884c84 -1 98 -40 137 -40c18 0 27 10 31 37h90c-13 -96 -38 -127 -110 -127c-84 0 -97 40 -134 40
c-19 0 -30 -10 -34 -38h-90c14 96 38 128 110 128z" />
    <glyph glyph-name="utilde" unicode="&#x169;" 
d="M253 119c60 0 74 40 96 198l56 397h162l-56 -397c-39 -279 -92 -329 -277 -329s-224 50 -185 329l56 397h162l-56 -397c-22 -158 -18 -198 42 -198zM251 884c84 -1 98 -40 137 -40c18 0 27 10 31 37h90c-13 -96 -38 -127 -110 -127c-84 0 -97 40 -134 40
c-19 0 -30 -10 -34 -38h-90c14 96 38 128 110 128z" />
    <glyph glyph-name="Ubreve" unicode="&#x16c;" 
d="M253 119c-60 0 -64 40 -42 198l56 397h-162l-56 -397c-39 -279 0 -329 185 -329s238 50 277 329l56 397h-162l-56 -397c-22 -158 -36 -198 -96 -198zM358 855h86c-12 -73 -71 -99 -127 -99s-106 25 -98 99h86c-4 -31 -3 -43 20 -43s30 16 33 43z" />
    <glyph glyph-name="ubreve" unicode="&#x16d;" 
d="M253 119c-60 0 -64 40 -42 198l56 397h-162l-56 -397c-39 -279 0 -329 185 -329s238 50 277 329l56 397h-162l-56 -397c-22 -158 -36 -198 -96 -198zM358 855h86c-12 -73 -71 -99 -127 -99s-106 25 -98 99h86c-4 -31 -3 -43 20 -43s30 16 33 43z" />
    <glyph glyph-name="uring" unicode="&#x16f;" 
d="M253 119c-60 0 -64 40 -42 198l56 397h-162l-56 -397c-39 -279 0 -329 185 -329s238 50 277 329l56 397h-162l-56 -397c-22 -158 -36 -198 -96 -198zM216 857c11 77 69 103 126 103s110 -26 99 -103s-70 -102 -127 -102s-109 25 -98 102zM302 857c-5 -33 -5 -46 19 -46
c25 0 29 13 34 46c5 34 5 47 -20 47c-24 0 -28 -13 -33 -47z" />
    <glyph glyph-name="Uring" unicode="&#x16e;" 
d="M253 119c-60 0 -64 40 -42 198l56 397h-162l-56 -397c-39 -279 0 -329 185 -329s238 50 277 329l56 397h-162l-56 -397c-22 -158 -36 -198 -96 -198zM216 857c11 77 69 103 126 103s110 -26 99 -103s-70 -102 -127 -102s-109 25 -98 102zM302 857c-5 -33 -5 -46 19 -46
c25 0 29 13 34 46c5 34 5 47 -20 47c-24 0 -28 -13 -33 -47z" />
    <glyph glyph-name="Wcircumflex" unicode="&#x174;" horiz-adv-x="809" 
d="M685 714h169l-251 -714h-159l-14 364l-117 -364h-159l-49 714h169l-1 -431l142 431h129l19 -431zM419 873h112l136 -118h-167l-35 45l-47 -45h-167z" />
    <glyph glyph-name="Zacute" unicode="&#x179;" horiz-adv-x="480" 
d="M408 0h-404l20 139l304 436h-213l20 139h390l-20 -139l-312 -436h235zM344 756h-149l120 118h187z" />
    <glyph glyph-name="zacute" unicode="&#x17a;" horiz-adv-x="480" 
d="M408 0h-404l20 139l304 436h-213l20 139h390l-20 -139l-312 -436h235zM344 756h-149l120 118h187z" />
    <glyph glyph-name="Cacute" unicode="&#x106;" horiz-adv-x="520" 
d="M254 127c44 0 60 43 70 109h174c-21 -147 -98 -248 -254 -248c-211 0 -229 89 -190 368c38 270 86 370 293 370c156 0 205 -101 185 -248h-174c9 64 6 109 -38 109c-50 0 -63 -37 -91 -231c-27 -198 -25 -229 25 -229zM377 756h-149l120 118h187z" />
    <glyph glyph-name="cacute" unicode="&#x107;" horiz-adv-x="520" 
d="M254 127c44 0 60 43 70 109h174c-21 -147 -98 -248 -254 -248c-211 0 -229 89 -190 368c38 270 86 370 293 370c156 0 205 -101 185 -248h-174c9 64 6 109 -38 109c-50 0 -63 -37 -91 -231c-27 -198 -25 -229 25 -229zM377 756h-149l120 118h187z" />
    <glyph glyph-name="ebreve" unicode="&#x115;" horiz-adv-x="392" 
d="M244 575l-20 -141h123l-19 -139h-123l-22 -156h173l-20 -139h-332l101 714h332l-20 -139h-173zM291 855h86c-12 -73 -71 -99 -127 -99s-106 25 -98 99h86c-4 -31 -3 -43 20 -43s30 16 33 43z" />
    <glyph glyph-name="Ebreve" unicode="&#x114;" horiz-adv-x="392" 
d="M244 575l-20 -141h123l-19 -139h-123l-22 -156h173l-20 -139h-332l101 714h332l-20 -139h-173zM291 855h86c-12 -73 -71 -99 -127 -99s-106 25 -98 99h86c-4 -31 -3 -43 20 -43s30 16 33 43z" />
    <glyph glyph-name="Gbreve" unicode="&#x11e;" horiz-adv-x="520" 
d="M464 0h-51l-6 47c-41 -37 -97 -59 -163 -59c-211 0 -229 89 -190 368c38 270 86 370 293 370c156 0 205 -101 185 -248h-174c9 64 6 109 -38 109c-50 0 -63 -37 -91 -231c-27 -198 -25 -229 25 -229c42 0 60 39 68 101l5 31h-57l18 129h231zM360 855h86
c-12 -73 -71 -99 -127 -99s-106 25 -98 99h86c-4 -31 -3 -43 20 -43s30 16 33 43z" />
    <glyph glyph-name="gbreve" unicode="&#x11f;" horiz-adv-x="520" 
d="M464 0h-51l-6 47c-41 -37 -97 -59 -163 -59c-211 0 -229 89 -190 368c38 270 86 370 293 370c156 0 205 -101 185 -248h-174c9 64 6 109 -38 109c-50 0 -63 -37 -91 -231c-27 -198 -25 -229 25 -229c42 0 60 39 68 101l5 31h-57l18 129h231zM360 855h86
c-12 -73 -71 -99 -127 -99s-106 25 -98 99h86c-4 -31 -3 -43 20 -43s30 16 33 43z" />
    <glyph glyph-name="Lacute" unicode="&#x139;" horiz-adv-x="382" 
d="M264 714l-81 -575h163l-20 -139h-322l101 714h159zM241 756h-149l120 118h187z" />
    <glyph glyph-name="lacute" unicode="&#x13a;" horiz-adv-x="382" 
d="M264 714l-81 -575h163l-20 -139h-322l101 714h159zM241 756h-149l120 118h187z" />
    <glyph glyph-name="Nacute" unicode="&#x143;" horiz-adv-x="542" 
d="M428 714h159l-101 -714h-159l-114 353l-50 -353h-159l101 714h158l112 -373zM373 756h-149l120 118h187z" />
    <glyph glyph-name="nacute" unicode="&#x144;" horiz-adv-x="542" 
d="M428 714h159l-101 -714h-159l-114 353l-50 -353h-159l101 714h158l112 -373zM373 756h-149l120 118h187z" />
    <glyph glyph-name="Ncaron" unicode="&#x147;" horiz-adv-x="542" 
d="M428 714h159l-101 -714h-159l-114 353l-50 -353h-159l101 714h158l112 -373zM387 755h-112l-136 118h167l35 -45l47 45h167z" />
    <glyph glyph-name="ncaron" unicode="&#x148;" horiz-adv-x="542" 
d="M428 714h159l-101 -714h-159l-114 353l-50 -353h-159l101 714h158l112 -373zM387 755h-112l-136 118h167l35 -45l47 45h167z" />
    <glyph glyph-name="Obreve" unicode="&#x14e;" 
d="M318 587c50 0 51 -37 23 -231c-27 -198 -38 -229 -88 -229s-51 31 -24 229c28 194 39 231 89 231zM337 726c-215 0 -246 -110 -283 -370c-37 -269 -35 -368 180 -368s245 99 282 368c37 260 36 370 -179 370zM355 855h86c-12 -73 -71 -99 -127 -99s-106 25 -98 99h86
c-4 -31 -3 -43 20 -43s30 16 33 43z" />
    <glyph glyph-name="obreve" unicode="&#x14f;" 
d="M318 587c50 0 51 -37 23 -231c-27 -198 -38 -229 -88 -229s-51 31 -24 229c28 194 39 231 89 231zM337 726c-215 0 -246 -110 -283 -370c-37 -269 -35 -368 180 -368s245 99 282 368c37 260 36 370 -179 370zM355 855h86c-12 -73 -71 -99 -127 -99s-106 25 -98 99h86
c-4 -31 -3 -43 20 -43s30 16 33 43z" />
    <glyph glyph-name="macron" unicode="&#xaf;" horiz-adv-x="353" 
d="M75 673l14 100h289l-14 -100h-289z" />
    <glyph glyph-name="amacron" unicode="&#x101;" horiz-adv-x="539" 
d="M239 714h159l59 -714h-159l-2 109h-125l-34 -109h-159zM286 489l-76 -251h82zM180 755l14 100h289l-14 -100h-289z" />
    <glyph glyph-name="Abreve" unicode="&#x102;" horiz-adv-x="539" 
d="M239 714h159l59 -714h-159l-2 109h-125l-34 -109h-159zM286 489l-76 -251h82zM365 855h86c-12 -73 -71 -99 -127 -99s-106 25 -98 99h86c-4 -31 -3 -43 20 -43s30 16 33 43z" />
    <glyph glyph-name="abreve" unicode="&#x103;" horiz-adv-x="539" 
d="M239 714h159l59 -714h-159l-2 109h-125l-34 -109h-159zM286 489l-76 -251h82zM365 855h86c-12 -73 -71 -99 -127 -99s-106 25 -98 99h86c-4 -31 -3 -43 20 -43s30 16 33 43z" />
    <glyph glyph-name="Amacron" unicode="&#x100;" horiz-adv-x="539" 
d="M239 714h159l59 -714h-159l-2 109h-125l-34 -109h-159zM286 489l-76 -251h82zM180 755l14 100h289l-14 -100h-289z" />
    <glyph glyph-name="Emacron" unicode="&#x112;" horiz-adv-x="392" 
d="M244 575l-20 -141h123l-19 -139h-123l-22 -156h173l-20 -139h-332l101 714h332l-20 -139h-173zM106 755l14 100h289l-14 -100h-289z" />
    <glyph glyph-name="emacron" unicode="&#x113;" horiz-adv-x="392" 
d="M244 575l-20 -141h123l-19 -139h-123l-22 -156h173l-20 -139h-332l101 714h332l-20 -139h-173zM106 755l14 100h289l-14 -100h-289z" />
    <glyph glyph-name="Omacron" unicode="&#x14c;" 
d="M318 587c50 0 51 -37 23 -231c-27 -198 -38 -229 -88 -229s-51 31 -24 229c28 194 39 231 89 231zM337 726c-215 0 -246 -110 -283 -370c-37 -269 -35 -368 180 -368s245 99 282 368c37 260 36 370 -179 370zM170 755l14 100h289l-14 -100h-289z" />
    <glyph glyph-name="omacron" unicode="&#x14d;" 
d="M318 587c50 0 51 -37 23 -231c-27 -198 -38 -229 -88 -229s-51 31 -24 229c28 194 39 231 89 231zM337 726c-215 0 -246 -110 -283 -370c-37 -269 -35 -368 180 -368s245 99 282 368c37 260 36 370 -179 370zM170 755l14 100h289l-14 -100h-289z" />
    <glyph glyph-name="Umacron" unicode="&#x16a;" 
d="M253 119c-60 0 -64 40 -42 198l56 397h-162l-56 -397c-39 -279 0 -329 185 -329s238 50 277 329l56 397h-162l-56 -397c-22 -158 -36 -198 -96 -198zM173 755l14 100h289l-14 -100h-289z" />
    <glyph glyph-name="umacron" unicode="&#x16b;" 
d="M253 119c-60 0 -64 40 -42 198l56 397h-162l-56 -397c-39 -279 0 -329 185 -329s238 50 277 329l56 397h-162l-56 -397c-22 -158 -36 -198 -96 -198zM173 755l14 100h289l-14 -100h-289z" />
    <glyph glyph-name="Cdotaccent" unicode="&#x10a;" horiz-adv-x="520" 
d="M254 127c-50 0 -52 31 -25 229c28 194 41 231 91 231c44 0 47 -45 38 -109h174c20 147 -29 248 -185 248c-207 0 -255 -100 -293 -370c-39 -279 -21 -368 190 -368c156 0 233 101 254 248h-174c-10 -66 -26 -109 -70 -109zM256 754l16 118h118l-16 -118h-118z" />
    <glyph glyph-name="cdotaccent" unicode="&#x10b;" horiz-adv-x="520" 
d="M254 127c-50 0 -52 31 -25 229c28 194 41 231 91 231c44 0 47 -45 38 -109h174c20 147 -29 248 -185 248c-207 0 -255 -100 -293 -370c-39 -279 -21 -368 190 -368c156 0 233 101 254 248h-174c-10 -66 -26 -109 -70 -109zM256 754l16 118h118l-16 -118h-118z" />
    <glyph glyph-name="dotaccent" unicode="&#x2d9;" horiz-adv-x="196" 
d="M81 672l16 118h118l-16 -118h-118z" />
    <glyph glyph-name="Edotaccent" unicode="&#x116;" horiz-adv-x="392" 
d="M244 575l-20 -141h123l-19 -139h-123l-22 -156h173l-20 -139h-332l101 714h332l-20 -139h-173zM191 754l16 118h118l-16 -118h-118z" />
    <glyph glyph-name="edotaccent" unicode="&#x117;" horiz-adv-x="392" 
d="M244 575l-20 -141h123l-19 -139h-123l-22 -156h173l-20 -139h-332l101 714h332l-20 -139h-173zM191 754l16 118h118l-16 -118h-118z" />
    <glyph glyph-name="Gdotaccent" unicode="&#x120;" horiz-adv-x="520" 
d="M464 0h-51l-6 47c-41 -37 -97 -59 -163 -59c-211 0 -229 89 -190 368c38 270 86 370 293 370c156 0 205 -101 185 -248h-174c9 64 6 109 -38 109c-50 0 -63 -37 -91 -231c-27 -198 -25 -229 25 -229c42 0 60 39 68 101l5 31h-57l18 129h231zM261 754l16 118h118l-16 -118
h-118z" />
    <glyph glyph-name="gdotaccent" unicode="&#x121;" horiz-adv-x="520" 
d="M464 0h-51l-6 47c-41 -37 -97 -59 -163 -59c-211 0 -229 89 -190 368c38 270 86 370 293 370c156 0 205 -101 185 -248h-174c9 64 6 109 -38 109c-50 0 -63 -37 -91 -231c-27 -198 -25 -229 25 -229c42 0 60 39 68 101l5 31h-57l18 129h231zM261 754l16 118h118l-16 -118
h-118z" />
    <glyph glyph-name="Idotaccent" unicode="&#x130;" horiz-adv-x="219" 
d="M105 714h159l-101 -714h-159zM105 754l16 118h118l-16 -118h-118z" />
    <glyph glyph-name="Ldot" unicode="&#x13f;" horiz-adv-x="382" 
d="M264 714l-81 -575h163l-20 -139h-322l101 714h159zM237 312l18 132h132l-18 -132h-132z" />
    <glyph glyph-name="ldot" unicode="&#x140;" horiz-adv-x="382" 
d="M264 714l-81 -575h163l-20 -139h-322l101 714h159zM237 312l18 132h132l-18 -132h-132z" />
    <glyph glyph-name="Zdotaccent" unicode="&#x17b;" horiz-adv-x="480" 
d="M408 0h-404l20 139l304 436h-213l20 139h390l-20 -139l-312 -436h235zM233 754l16 118h118l-16 -118h-118z" />
    <glyph glyph-name="zdotaccent" unicode="&#x17c;" horiz-adv-x="480" 
d="M408 0h-404l20 139l304 436h-213l20 139h390l-20 -139l-312 -436h235zM233 754l16 118h118l-16 -118h-118z" />
    <glyph glyph-name="aogonek" unicode="&#x105;" horiz-adv-x="539" 
d="M271 714h159l59 -714h-100c-5 -4 -29 -28 -33 -60c-4 -24 5 -31 28 -31c54 0 83 32 83 32l9 -67s-49 -39 -105 -39c-73 0 -95 34 -89 80c8 52 42 80 48 85l-2 109h-125l-34 -109h-159zM318 489l-76 -251h82z" />
    <glyph glyph-name="eogonek" unicode="&#x119;" horiz-adv-x="392" 
d="M250 575l-20 -141h123l-19 -139h-123l-22 -156h173l-20 -139h-52c-5 -4 -29 -28 -33 -60c-4 -24 5 -31 28 -31c54 0 83 32 83 32l9 -67s-49 -39 -105 -39c-73 0 -95 34 -89 80c7 51 39 79 47 85h-220l101 714h332l-20 -139h-173z" />
    <glyph glyph-name="Iogonek" unicode="&#x12e;" horiz-adv-x="219" 
d="M111 714h159l-101 -714h-59c-5 -4 -29 -28 -33 -60c-4 -24 5 -31 28 -31c54 0 83 32 83 32l9 -67s-49 -39 -105 -39c-73 0 -94 34 -89 80c7 51 39 79 47 85h-40z" />
    <glyph glyph-name="iogonek" unicode="&#x12f;" horiz-adv-x="219" 
d="M111 714h159l-101 -714h-59c-5 -4 -29 -28 -33 -60c-4 -24 5 -31 28 -31c54 0 83 32 83 32l9 -67s-49 -39 -105 -39c-73 0 -94 34 -89 80c7 51 39 79 47 85h-40z" />
    <glyph glyph-name="Uogonek" unicode="&#x172;" 
d="M258 119c60 0 75 40 97 198l56 397h162l-56 -397c-30 -213 -68 -292 -166 -318c-8 -8 -28 -30 -32 -59c-4 -24 5 -31 28 -31c54 0 83 32 83 32l9 -67s-49 -39 -105 -39c-73 0 -95 34 -89 80c5 37 23 61 36 74c-13 0 -27 -1 -41 -1c-185 0 -224 50 -185 329l56 397h162
l-56 -397c-22 -158 -19 -198 41 -198z" />
    <glyph glyph-name="uogonek" unicode="&#x173;" 
d="M258 119c60 0 75 40 97 198l56 397h162l-56 -397c-30 -213 -68 -292 -166 -318c-8 -8 -28 -30 -32 -59c-4 -24 5 -31 28 -31c54 0 83 32 83 32l9 -67s-49 -39 -105 -39c-73 0 -95 34 -89 80c5 37 23 61 36 74c-13 0 -27 -1 -41 -1c-185 0 -224 50 -185 329l56 397h162
l-56 -397c-22 -158 -19 -198 41 -198z" />
    <glyph glyph-name="uni0122" unicode="&#x122;" horiz-adv-x="520" 
d="M261 -43l-59 -48s37 -10 33 -36c-4 -33 -64 -68 -64 -68l48 -40s83 36 93 108c8 56 -51 84 -51 84zM473 0h-51l-6 47c-41 -37 -97 -59 -163 -59c-211 0 -229 89 -190 368c38 270 86 370 293 370c156 0 205 -101 185 -248h-174c9 64 6 109 -38 109c-50 0 -63 -37 -91 -231
c-27 -198 -25 -229 25 -229c42 0 60 39 68 101l5 31h-57l18 129h231z" />
    <glyph glyph-name="uni0123" unicode="&#x123;" horiz-adv-x="520" 
d="M261 -43l-59 -48s37 -10 33 -36c-4 -33 -64 -68 -64 -68l48 -40s83 36 93 108c8 56 -51 84 -51 84zM473 0h-51l-6 47c-41 -37 -97 -59 -163 -59c-211 0 -229 89 -190 368c38 270 86 370 293 370c156 0 205 -101 185 -248h-174c9 64 6 109 -38 109c-50 0 -63 -37 -91 -231
c-27 -198 -25 -229 25 -229c42 0 60 39 68 101l5 31h-57l18 129h231z" />
    <glyph glyph-name="IJ" unicode="&#x132;" horiz-adv-x="685" 
d="M105 714h159l-101 -714h-159zM248 245h175c-14 -101 -1 -118 30 -118c23 0 38 15 68 229l50 358h159l-50 -358c-40 -286 -66 -368 -247 -368c-182 0 -210 79 -185 257z" />
    <glyph glyph-name="ij" unicode="&#x133;" horiz-adv-x="685" 
d="M105 714h159l-101 -714h-159zM248 245h175c-14 -101 -1 -118 30 -118c23 0 38 15 68 229l50 358h159l-50 -358c-40 -286 -66 -368 -247 -368c-182 0 -210 79 -185 257z" />
    <glyph glyph-name="uni0136" unicode="&#x136;" horiz-adv-x="529" 
d="M245 -43l-59 -48s37 -10 33 -36c-4 -33 -64 -68 -64 -68l48 -40s83 36 93 108c8 56 -51 84 -51 84zM114 714h159l-44 -312l162 311h192l-237 -357l136 -356h-192l-74 313l-44 -313h-159z" />
    <glyph glyph-name="uni0137" unicode="&#x137;" horiz-adv-x="529" 
d="M245 -43l-59 -48s37 -10 33 -36c-4 -33 -64 -68 -64 -68l48 -40s83 36 93 108c8 56 -51 84 -51 84zM114 714h159l-44 -312l162 311h192l-237 -357l136 -356h-192l-74 313l-44 -313h-159z" />
    <glyph glyph-name="kgreenlandic" unicode="&#x138;" horiz-adv-x="529" 
d="M105 714h159l-44 -312l162 311h192l-237 -357l136 -356h-192l-74 313l-44 -313h-159z" />
    <glyph glyph-name="uni013B" unicode="&#x13b;" horiz-adv-x="382" 
d="M187 -43l-59 -48s37 -10 33 -36c-4 -33 -64 -68 -64 -68l48 -40s83 36 93 108c8 56 -51 84 -51 84zM273 714l-81 -575h163l-20 -139h-322l101 714h159z" />
    <glyph glyph-name="uni013C" unicode="&#x13c;" horiz-adv-x="382" 
d="M187 -43l-59 -48s37 -10 33 -36c-4 -33 -64 -68 -64 -68l48 -40s83 36 93 108c8 56 -51 84 -51 84zM273 714l-81 -575h163l-20 -139h-322l101 714h159z" />
    <glyph glyph-name="uni0145" unicode="&#x145;" horiz-adv-x="542" 
d="M275 -43l-59 -48s37 -10 33 -36c-4 -33 -64 -68 -64 -68l48 -40s83 36 93 108c8 56 -51 84 -51 84zM437 714h159l-101 -714h-159l-114 353l-50 -353h-159l101 714h158l112 -373z" />
    <glyph glyph-name="uni0146" unicode="&#x146;" horiz-adv-x="542" 
d="M275 -43l-59 -48s37 -10 33 -36c-4 -33 -64 -68 -64 -68l48 -40s83 36 93 108c8 56 -51 84 -51 84zM437 714h159l-101 -714h-159l-114 353l-50 -353h-159l101 714h158l112 -373z" />
    <glyph glyph-name="napostrophe" unicode="&#x149;" horiz-adv-x="718" 
d="M80 484l13 230h132l-53 -230h-92zM604 714h159l-101 -714h-159l-114 353l-50 -353h-159l101 714h158l112 -373z" />
    <glyph glyph-name="uni0156" unicode="&#x156;" horiz-adv-x="485" 
d="M236 -43l-59 -48s37 -10 33 -36c-4 -33 -64 -68 -64 -68l48 -40s83 36 93 108c8 56 -51 84 -51 84zM268 269h-58l-38 -269h-159l101 714h159c187 0 242 -68 221 -218c-11 -82 -35 -142 -85 -170c75 -65 20 -244 29 -326h-159c-4 70 43 207 -11 269zM255 585l-30 -210
c77 0 96 20 107 100s0 110 -77 110z" />
    <glyph glyph-name="uni0157" unicode="&#x157;" horiz-adv-x="485" 
d="M236 -43l-59 -48s37 -10 33 -36c-4 -33 -64 -68 -64 -68l48 -40s83 36 93 108c8 56 -51 84 -51 84zM268 269h-58l-38 -269h-159l101 714h159c187 0 242 -68 221 -218c-11 -82 -35 -142 -85 -170c75 -65 20 -244 29 -326h-159c-4 70 43 207 -11 269zM255 585l-30 -210
c77 0 96 20 107 100s0 110 -77 110z" />
    <glyph glyph-name="uni0162" unicode="&#x162;" horiz-adv-x="505" 
d="M258 -43l-59 -48s37 -10 33 -36c-4 -33 -64 -68 -64 -68l48 -40s83 36 93 108c8 56 -51 84 -51 84zM396 575l-81 -575h-159l81 575h-143l20 139h445l-20 -139h-143z" />
    <glyph glyph-name="uni0163" unicode="&#x163;" horiz-adv-x="505" 
d="M258 -43l-59 -48s37 -10 33 -36c-4 -33 -64 -68 -64 -68l48 -40s83 36 93 108c8 56 -51 84 -51 84zM396 575l-81 -575h-159l81 575h-143l20 139h445l-20 -139h-143z" />
    <glyph glyph-name="tcaron" unicode="&#x165;" horiz-adv-x="505" 
d="M387 575l-81 -575h-159l81 575h-143l20 139h445l-20 -139h-143zM362 755h-112l-136 118h167l35 -45l47 45h167z" />
    <glyph glyph-name="Tbar" unicode="&#x166;" horiz-adv-x="505" 
d="M387 575l-22 -160h113l-14 -100h-113l-45 -315h-159l45 315h-113l14 100h113l22 160h-143l20 139h445l-20 -139h-143z" />
    <glyph glyph-name="tbar" unicode="&#x167;" horiz-adv-x="505" 
d="M387 575l-22 -160h113l-14 -100h-113l-45 -315h-159l45 315h-113l14 100h113l22 160h-143l20 139h445l-20 -139h-143z" />
    <glyph glyph-name="Lcaron" unicode="&#x13d;" horiz-adv-x="382" 
d="M298 672l59 48s59 -28 51 -84c-10 -72 -93 -108 -93 -108l-49 40s60 35 65 68c4 26 -33 36 -33 36zM221 714l-81 -575h163l-20 -139h-322l101 714h159z" />
    <glyph glyph-name="lcaron" unicode="&#x13e;" horiz-adv-x="382" 
d="M298 672l59 48s59 -28 51 -84c-10 -72 -93 -108 -93 -108l-49 40s60 35 65 68c4 26 -33 36 -33 36zM221 714l-81 -575h163l-20 -139h-322l101 714h159z" />
    <glyph glyph-name="dotlessi" unicode="&#x131;" horiz-adv-x="219" 
d="M105 714h159l-101 -714h-159z" />
    <glyph glyph-name="Eng" unicode="&#x14a;" horiz-adv-x="542" 
d="M435 714h159l-100 -714c-26 -184 -190 -203 -190 -203l-54 131s78 23 85 72l-115 353l-49 -353h-159l100 714h158l113 -373z" />
    <glyph glyph-name="eng" unicode="&#x14b;" horiz-adv-x="542" 
d="M435 714h159l-100 -714c-26 -184 -190 -203 -190 -203l-54 131s78 23 85 72l-115 353l-49 -353h-159l100 714h158l113 -373z" />
    <glyph glyph-name="Ohungarumlaut" unicode="&#x150;" horiz-adv-x="558" 
d="M261 756h-99l99 154h147zM450 756h-99l99 154h147zM260 587c-50 0 -61 -37 -89 -231c-27 -198 -26 -229 24 -229s61 31 88 229c28 194 27 231 -23 231zM279 726c215 0 216 -110 179 -370c-37 -269 -67 -368 -282 -368s-217 99 -180 368c37 260 68 370 283 370z" />
    <glyph glyph-name="ohungarumlaut" unicode="&#x151;" horiz-adv-x="558" 
d="M261 756h-99l99 154h147zM450 756h-99l99 154h147zM260 587c-50 0 -61 -37 -89 -231c-27 -198 -26 -229 24 -229s61 31 88 229c28 194 27 231 -23 231zM279 726c215 0 216 -110 179 -370c-37 -269 -67 -368 -282 -368s-217 99 -180 368c37 260 68 370 283 370z" />
    <glyph glyph-name="uni0202" unicode="&#x202;" horiz-adv-x="539" 
d="M239 714h159l59 -714h-159l-2 109h-125l-34 -109h-159zM286 489l-76 -251h82zM653 756h-86c-3 27 -10 43 -33 43s-24 -12 -20 -43h-86c-8 74 42 99 98 99s115 -26 127 -99z" />
    <glyph glyph-name="uni0203" unicode="&#x203;" horiz-adv-x="539" 
d="M239 714h159l59 -714h-159l-2 109h-125l-34 -109h-159zM286 489l-76 -251h82zM653 756h-86c-3 27 -10 43 -33 43s-24 -12 -20 -43h-86c-8 74 42 99 98 99s115 -26 127 -99z" />
    <glyph glyph-name="uni0206" unicode="&#x206;" horiz-adv-x="392" 
d="M244 575l-20 -141h123l-19 -139h-123l-22 -156h173l-20 -139h-332l101 714h332l-20 -139h-173zM579 756h-86c-3 27 -10 43 -33 43s-24 -12 -20 -43h-86c-8 74 42 99 98 99s115 -26 127 -99z" />
    <glyph glyph-name="uni0207" unicode="&#x207;" horiz-adv-x="392" 
d="M244 575l-20 -141h123l-19 -139h-123l-22 -156h173l-20 -139h-332l101 714h332l-20 -139h-173zM579 756h-86c-3 27 -10 43 -33 43s-24 -12 -20 -43h-86c-8 74 42 99 98 99s115 -26 127 -99z" />
    <glyph glyph-name="uni020E" unicode="&#x20e;" 
d="M318 587c-50 0 -61 -37 -89 -231c-27 -198 -26 -229 24 -229s61 31 88 229c28 194 27 231 -23 231zM337 726c215 0 216 -110 179 -370c-37 -269 -67 -368 -282 -368s-217 99 -180 368c37 260 68 370 283 370zM645 756h-86c-3 27 -10 43 -33 43s-24 -12 -20 -43h-86
c-8 74 42 99 98 99s115 -26 127 -99z" />
    <glyph glyph-name="uni0212" unicode="&#x212;" horiz-adv-x="485" 
d="M259 269h-58l-38 -269h-159l101 714h159c187 0 242 -68 221 -218c-11 -82 -35 -142 -85 -170c75 -65 20 -244 29 -326h-159c-4 70 43 207 -11 269zM246 585l-30 -210c77 0 96 20 107 100s0 110 -77 110zM590 756h-86c-3 27 -10 43 -33 43s-24 -12 -20 -43h-86
c-8 74 42 99 98 99s115 -26 127 -99z" />
    <glyph glyph-name="uni0213" unicode="&#x213;" horiz-adv-x="485" 
d="M259 269h-58l-38 -269h-159l101 714h159c187 0 242 -68 221 -218c-11 -82 -35 -142 -85 -170c75 -65 20 -244 29 -326h-159c-4 70 43 207 -11 269zM246 585l-30 -210c77 0 96 20 107 100s0 110 -77 110zM590 756h-86c-3 27 -10 43 -33 43s-24 -12 -20 -43h-86
c-8 74 42 99 98 99s115 -26 127 -99z" />
    <glyph glyph-name="uni0216" unicode="&#x216;" 
d="M253 119c60 0 74 40 96 198l56 397h162l-56 -397c-39 -279 -92 -329 -277 -329s-224 50 -185 329l56 397h162l-56 -397c-22 -158 -18 -198 42 -198zM648 756h-86c-3 27 -10 43 -33 43s-24 -12 -20 -43h-86c-8 74 42 99 98 99s115 -26 127 -99z" />
    <glyph glyph-name="uni0218" unicode="&#x218;" horiz-adv-x="472" 
d="M250 -43l-59 -48s37 -10 33 -36c-4 -33 -64 -68 -64 -68l48 -40s83 36 93 108c8 56 -51 84 -51 84zM305 587c-22 0 -32 -13 -40 -70c-18 -126 211 -118 182 -326c-17 -120 -46 -203 -230 -203c-172 0 -190 109 -169 256h174c-9 -64 -17 -117 14 -117c24 0 32 25 37 65
c19 132 -207 115 -177 329c20 147 70 205 232 205c146 0 185 -101 165 -248h-174c12 87 11 109 -14 109z" />
    <glyph glyph-name="uni021A" unicode="&#x21a;" horiz-adv-x="505" 
d="M258 -43l-59 -48s37 -10 33 -36c-4 -33 -64 -68 -64 -68l48 -40s83 36 93 108c8 56 -51 84 -51 84zM396 575l-81 -575h-159l81 575h-143l20 139h445l-20 -139h-143z" />
    <glyph glyph-name="uni01E2" unicode="&#x1e2;" horiz-adv-x="666" 
d="M518 575l-20 -141h123l-19 -139h-123l-22 -156h173l-20 -139h-309l17 119h-113l-47 -119h-158l300 714h411l-20 -139h-173zM383 576l-140 -338h93zM323 755l14 100h289l-14 -100h-289z" />
    <glyph glyph-name="uni01F8" unicode="&#x1f8;" horiz-adv-x="542" 
d="M428 714h159l-101 -714h-159l-114 353l-50 -353h-159l101 714h158l112 -373zM416 756h-149l-126 118h187z" />
    <glyph glyph-name="uni01F9" unicode="&#x1f9;" horiz-adv-x="542" 
d="M428 714h159l-101 -714h-159l-114 353l-50 -353h-159l101 714h158l112 -373zM416 756h-149l-126 118h187z" />
    <glyph glyph-name="AEacute" unicode="&#x1fc;" horiz-adv-x="666" 
d="M518 575l-20 -141h123l-19 -139h-123l-22 -156h173l-20 -139h-309l17 119h-113l-47 -119h-158l300 714h411l-20 -139h-173zM383 576l-140 -338h93zM514 756h-149l120 118h187z" />
    <glyph glyph-name="aeacute" unicode="&#x1fd;" horiz-adv-x="666" 
d="M518 575l-20 -141h123l-19 -139h-123l-22 -156h173l-20 -139h-309l17 119h-113l-47 -119h-158l300 714h411l-20 -139h-173zM383 576l-140 -338h93zM514 756h-149l120 118h187z" />
    <glyph glyph-name="space" unicode=" " horiz-adv-x="289" 
 />
    <glyph glyph-name="uni007F" horiz-adv-x="0" 
 />
    <glyph glyph-name="Egrave" unicode="&#xc8;" horiz-adv-x="392" 
d="M244 575l-20 -141h123l-19 -139h-123l-22 -156h173l-20 -139h-332l101 714h332l-20 -139h-173zM346 756h-149l-126 118h187z" />
    <glyph glyph-name="Eacute" unicode="&#xc9;" horiz-adv-x="392" 
d="M244 575l-20 -141h123l-19 -139h-123l-22 -156h173l-20 -139h-332l101 714h332l-20 -139h-173zM313 756h-149l120 118h187z" />
    <glyph glyph-name="Ecircumflex" unicode="&#xca;" horiz-adv-x="392" 
d="M244 575l-20 -141h123l-19 -139h-123l-22 -156h173l-20 -139h-332l101 714h332l-20 -139h-173zM211 873h112l136 -118h-167l-35 45l-47 -45h-167z" />
    <glyph glyph-name="Edieresis" unicode="&#xcb;" horiz-adv-x="392" 
d="M244 575l-20 -141h123l-19 -139h-123l-22 -156h173l-20 -139h-332l101 714h332l-20 -139h-173zM102 753l16 115h115l-16 -115h-115zM282 753l16 115h115l-16 -115h-115z" />
    <glyph glyph-name="egrave" unicode="&#xe8;" horiz-adv-x="392" 
d="M244 575l-20 -141h123l-19 -139h-123l-22 -156h173l-20 -139h-332l101 714h332l-20 -139h-173zM346 756h-149l-126 118h187z" />
    <glyph glyph-name="eacute" unicode="&#xe9;" horiz-adv-x="392" 
d="M244 575l-20 -141h123l-19 -139h-123l-22 -156h173l-20 -139h-332l101 714h332l-20 -139h-173zM313 756h-149l120 118h187z" />
    <glyph glyph-name="ecircumflex" unicode="&#xea;" horiz-adv-x="392" 
d="M244 575l-20 -141h123l-19 -139h-123l-22 -156h173l-20 -139h-332l101 714h332l-20 -139h-173zM211 873h112l136 -118h-167l-35 45l-47 -45h-167z" />
    <glyph glyph-name="edieresis" unicode="&#xeb;" horiz-adv-x="392" 
d="M244 575l-20 -141h123l-19 -139h-123l-22 -156h173l-20 -139h-332l101 714h332l-20 -139h-173zM102 753l16 115h115l-16 -115h-115zM282 753l16 115h115l-16 -115h-115z" />
    <glyph glyph-name="Igrave" unicode="&#xcc;" horiz-adv-x="219" 
d="M105 714h159l-101 -714h-159zM240 756h-149l-126 118h187z" />
    <glyph glyph-name="Iacute" unicode="&#xcd;" horiz-adv-x="219" 
d="M105 714h159l-101 -714h-159zM237 756h-149l120 118h187z" />
    <glyph glyph-name="Icircumflex" unicode="&#xce;" horiz-adv-x="219" 
d="M105 714h159l-101 -714h-159zM125 873h112l136 -118h-167l-35 45l-47 -45h-167z" />
    <glyph glyph-name="Idieresis" unicode="&#xcf;" horiz-adv-x="219" 
d="M105 714h159l-101 -714h-159zM17 753l16 115h115l-16 -115h-115zM197 753l16 115h115l-16 -115h-115z" />
    <glyph glyph-name="igrave" unicode="&#xec;" horiz-adv-x="219" 
d="M105 714h159l-101 -714h-159zM240 756h-149l-126 118h187z" />
    <glyph glyph-name="iacute" unicode="&#xed;" horiz-adv-x="219" 
d="M105 714h159l-101 -714h-159zM237 756h-149l120 118h187z" />
    <glyph glyph-name="icircumflex" unicode="&#xee;" horiz-adv-x="219" 
d="M105 714h159l-101 -714h-159zM125 873h112l136 -118h-167l-35 45l-47 -45h-167z" />
    <glyph glyph-name="idieresis" unicode="&#xef;" horiz-adv-x="219" 
d="M105 714h159l-101 -714h-159zM17 753l16 115h115l-16 -115h-115zM197 753l16 115h115l-16 -115h-115z" />
    <glyph glyph-name="Ntilde" unicode="&#xd1;" horiz-adv-x="542" 
d="M428 714h159l-101 -714h-159l-114 353l-50 -353h-159l101 714h158l112 -373zM259 884c84 -1 98 -40 137 -40c18 0 27 10 31 37h90c-13 -96 -38 -127 -110 -127c-84 0 -97 40 -134 40c-19 0 -30 -10 -34 -38h-90c14 96 38 128 110 128z" />
    <glyph glyph-name="Ograve" unicode="&#xd2;" 
d="M318 587c50 0 51 -37 23 -231c-27 -198 -38 -229 -88 -229s-51 31 -24 229c28 194 39 231 89 231zM337 726c-215 0 -246 -110 -283 -370c-37 -269 -35 -368 180 -368s245 99 282 368c37 260 36 370 -179 370zM400 756h-149l-126 118h187z" />
    <glyph glyph-name="Oacute" unicode="&#xd3;" 
d="M318 587c-50 0 -61 -37 -89 -231c-27 -198 -26 -229 24 -229s61 31 88 229c28 194 27 231 -23 231zM337 726c215 0 216 -110 179 -370c-37 -269 -67 -368 -282 -368s-217 99 -180 368c37 260 68 370 283 370zM378 756h-149l120 118h187z" />
    <glyph glyph-name="Ocircumflex" unicode="&#xd4;" 
d="M318 587c50 0 51 -37 23 -231c-27 -198 -38 -229 -88 -229s-51 31 -24 229c28 194 39 231 89 231zM337 726c-215 0 -246 -110 -283 -370c-37 -269 -35 -368 180 -368s245 99 282 368c37 260 36 370 -179 370zM275 873h112l136 -118h-167l-35 45l-47 -45h-167z" />
    <glyph glyph-name="Otilde" unicode="&#xd5;" 
d="M318 587c-50 0 -61 -37 -89 -231c-27 -198 -26 -229 24 -229s61 31 88 229c28 194 27 231 -23 231zM337 726c215 0 216 -110 179 -370c-37 -269 -67 -368 -282 -368s-217 99 -180 368c37 260 68 370 283 370zM249 884c84 -1 98 -40 137 -40c18 0 27 10 31 37h90
c-13 -96 -38 -127 -110 -127c-84 0 -97 40 -134 40c-19 0 -30 -10 -34 -38h-90c14 96 38 128 110 128z" />
    <glyph glyph-name="Odieresis" unicode="&#xd6;" 
d="M318 587c50 0 51 -37 23 -231c-27 -198 -38 -229 -88 -229s-51 31 -24 229c28 194 39 231 89 231zM337 726c-215 0 -246 -110 -283 -370c-37 -269 -35 -368 180 -368s245 99 282 368c37 260 36 370 -179 370zM167 753l16 115h115l-16 -115h-115zM347 753l16 115h115
l-16 -115h-115z" />
    <glyph glyph-name="ograve" unicode="&#xf2;" 
d="M318 587c50 0 51 -37 23 -231c-27 -198 -38 -229 -88 -229s-51 31 -24 229c28 194 39 231 89 231zM337 726c-215 0 -246 -110 -283 -370c-37 -269 -35 -368 180 -368s245 99 282 368c37 260 36 370 -179 370zM400 756h-149l-126 118h187z" />
    <glyph glyph-name="oacute" unicode="&#xf3;" 
d="M318 587c-50 0 -61 -37 -89 -231c-27 -198 -26 -229 24 -229s61 31 88 229c28 194 27 231 -23 231zM337 726c215 0 216 -110 179 -370c-37 -269 -67 -368 -282 -368s-217 99 -180 368c37 260 68 370 283 370zM378 756h-149l120 118h187z" />
    <glyph glyph-name="ocircumflex" unicode="&#xf4;" 
d="M318 587c50 0 51 -37 23 -231c-27 -198 -38 -229 -88 -229s-51 31 -24 229c28 194 39 231 89 231zM337 726c-215 0 -246 -110 -283 -370c-37 -269 -35 -368 180 -368s245 99 282 368c37 260 36 370 -179 370zM275 873h112l136 -118h-167l-35 45l-47 -45h-167z" />
    <glyph glyph-name="otilde" unicode="&#xf5;" 
d="M318 587c-50 0 -61 -37 -89 -231c-27 -198 -26 -229 24 -229s61 31 88 229c28 194 27 231 -23 231zM337 726c215 0 216 -110 179 -370c-37 -269 -67 -368 -282 -368s-217 99 -180 368c37 260 68 370 283 370zM249 884c84 -1 98 -40 137 -40c18 0 27 10 31 37h90
c-13 -96 -38 -127 -110 -127c-84 0 -97 40 -134 40c-19 0 -30 -10 -34 -38h-90c14 96 38 128 110 128z" />
    <glyph glyph-name="odieresis" unicode="&#xf6;" 
d="M318 587c50 0 51 -37 23 -231c-27 -198 -38 -229 -88 -229s-51 31 -24 229c28 194 39 231 89 231zM337 726c-215 0 -246 -110 -283 -370c-37 -269 -35 -368 180 -368s245 99 282 368c37 260 36 370 -179 370zM167 753l16 115h115l-16 -115h-115zM347 753l16 115h115
l-16 -115h-115z" />
    <glyph glyph-name="Ugrave" unicode="&#xd9;" 
d="M253 119c-60 0 -64 40 -42 198l56 397h-162l-56 -397c-39 -279 0 -329 185 -329s238 50 277 329l56 397h-162l-56 -397c-22 -158 -36 -198 -96 -198zM400 756h-149l-126 118h187z" />
    <glyph glyph-name="Uacute" unicode="&#xda;" 
d="M253 119c60 0 74 40 96 198l56 397h162l-56 -397c-39 -279 -92 -329 -277 -329s-224 50 -185 329l56 397h162l-56 -397c-22 -158 -18 -198 42 -198zM381 756h-149l120 118h187z" />
    <glyph glyph-name="Ucircumflex" unicode="&#xdb;" 
d="M253 119c-60 0 -64 40 -42 198l56 397h-162l-56 -397c-39 -279 0 -329 185 -329s238 50 277 329l56 397h-162l-56 -397c-22 -158 -36 -198 -96 -198zM275 873h112l136 -118h-167l-35 45l-47 -45h-167z" />
    <glyph glyph-name="Udieresis" unicode="&#xdc;" 
d="M253 119c-60 0 -64 40 -42 198l56 397h-162l-56 -397c-39 -279 0 -329 185 -329s238 50 277 329l56 397h-162l-56 -397c-22 -158 -36 -198 -96 -198zM167 753l16 115h115l-16 -115h-115zM347 753l16 115h115l-16 -115h-115z" />
    <glyph glyph-name="ugrave" unicode="&#xf9;" 
d="M253 119c-60 0 -64 40 -42 198l56 397h-162l-56 -397c-39 -279 0 -329 185 -329s238 50 277 329l56 397h-162l-56 -397c-22 -158 -36 -198 -96 -198zM400 756h-149l-126 118h187z" />
    <glyph glyph-name="uacute" unicode="&#xfa;" 
d="M253 119c60 0 74 40 96 198l56 397h162l-56 -397c-39 -279 -92 -329 -277 -329s-224 50 -185 329l56 397h162l-56 -397c-22 -158 -18 -198 42 -198zM381 756h-149l120 118h187z" />
    <glyph glyph-name="ucircumflex" unicode="&#xfb;" 
d="M253 119c-60 0 -64 40 -42 198l56 397h-162l-56 -397c-39 -279 0 -329 185 -329s238 50 277 329l56 397h-162l-56 -397c-22 -158 -36 -198 -96 -198zM275 873h112l136 -118h-167l-35 45l-47 -45h-167z" />
    <glyph glyph-name="udieresis" unicode="&#xfc;" 
d="M253 119c-60 0 -64 40 -42 198l56 397h-162l-56 -397c-39 -279 0 -329 185 -329s238 50 277 329l56 397h-162l-56 -397c-22 -158 -36 -198 -96 -198zM167 753l16 115h115l-16 -115h-115zM347 753l16 115h115l-16 -115h-115z" />
    <glyph glyph-name="agrave" unicode="&#xe0;" horiz-adv-x="539" 
d="M239 714h159l59 -714h-159l-2 109h-125l-34 -109h-159zM286 489l-76 -251h82zM401 756h-149l-126 118h187z" />
    <glyph glyph-name="aacute" unicode="&#xe1;" horiz-adv-x="539" 
d="M239 714h159l59 -714h-159l-2 109h-125l-34 -109h-159zM286 489l-76 -251h82zM399 756h-149l120 118h187z" />
    <glyph glyph-name="acircumflex" unicode="&#xe2;" horiz-adv-x="539" 
d="M239 714h159l59 -714h-159l-2 109h-125l-34 -109h-159zM286 489l-76 -251h82zM285 873h112l136 -118h-167l-35 45l-47 -45h-167z" />
    <glyph glyph-name="atilde" unicode="&#xe3;" horiz-adv-x="539" 
d="M239 714h159l59 -714h-159l-2 109h-125l-34 -109h-159zM286 489l-76 -251h82zM251 884c84 -1 98 -40 137 -40c18 0 27 10 31 37h90c-13 -96 -38 -127 -110 -127c-84 0 -97 40 -134 40c-19 0 -30 -10 -34 -38h-90c14 96 38 128 110 128z" />
    <glyph glyph-name="adieresis" unicode="&#xe4;" horiz-adv-x="539" 
d="M239 714h159l59 -714h-159l-2 109h-125l-34 -109h-159zM286 489l-76 -251h82zM176 753l16 115h115l-16 -115h-115zM356 753l16 115h115l-16 -115h-115z" />
    <glyph glyph-name="aring" unicode="&#xe5;" horiz-adv-x="539" 
d="M236 776c11 77 69 103 126 103s110 -26 99 -103c-5 -36 -21 -61 -42 -77l59 -699h-159l-3 109h-125l-33 -109h-158l254 700c-16 16 -23 41 -18 76zM306 489l-76 -251h82zM322 776c-5 -33 -5 -46 19 -46c25 0 29 13 34 46c4 34 4 47 -21 47c-24 0 -28 -13 -32 -47z" />
    <glyph glyph-name="Aogonek" unicode="&#x104;" horiz-adv-x="539" 
d="M271 714h159l59 -714h-100c-5 -4 -29 -28 -33 -60c-4 -24 5 -31 28 -31c54 0 83 32 83 32l9 -67s-49 -39 -105 -39c-73 0 -95 34 -89 80c8 52 42 80 48 85l-2 109h-125l-34 -109h-159zM318 489l-76 -251h82z" />
    <glyph glyph-name="Dcaron" unicode="&#x10e;" horiz-adv-x="491" 
d="M484 345l3 24c-40 -287 -91 -369 -294 -369h-189l101 714h189c203 0 230 -82 190 -369zM328 369l-3 -24c33 232 18 240 -79 240l-64 -456c97 0 114 8 146 240zM323 755h-112l-136 118h167l35 -45l47 45h167z" />
    <glyph glyph-name="dcaron" unicode="&#x10f;" horiz-adv-x="491" 
d="M484 345l3 24c-40 -287 -91 -369 -294 -369h-189l101 714h189c203 0 230 -82 190 -369zM328 369l-3 -24c33 232 18 240 -79 240l-64 -456c97 0 114 8 146 240zM323 755h-112l-136 118h167l35 -45l47 45h167z" />
    <glyph glyph-name="Dcroat" unicode="&#x110;" horiz-adv-x="536" 
d="M32 291l17 120h59l43 303h189c202 0 229 -81 189 -366c-37 -263 -92 -348 -290 -348h-189l41 291h-59zM228 129c93 0 114 13 143 216c33 232 18 240 -79 240l-25 -174h69l-17 -120h-69z" />
    <glyph glyph-name="dcroat" unicode="&#x111;" horiz-adv-x="536" 
d="M32 291l17 120h59l43 303h189c202 0 229 -81 189 -366c-37 -263 -92 -348 -290 -348h-189l41 291h-59zM228 129c93 0 114 13 143 216c33 232 18 240 -79 240l-25 -174h69l-17 -120h-69z" />
    <glyph glyph-name="Eogonek" unicode="&#x118;" horiz-adv-x="392" 
d="M250 575l-20 -141h123l-19 -139h-123l-22 -156h173l-20 -139h-52c-5 -4 -29 -28 -33 -60c-4 -24 5 -31 28 -31c54 0 83 32 83 32l9 -67s-49 -39 -105 -39c-73 0 -95 34 -89 80c7 51 39 79 47 85h-220l101 714h332l-20 -139h-173z" />
    <glyph glyph-name="Ecaron" unicode="&#x11a;" horiz-adv-x="392" 
d="M244 575l-20 -141h123l-19 -139h-123l-22 -156h173l-20 -139h-332l101 714h332l-20 -139h-173zM307 755h-112l-136 118h167l35 -45l47 45h167z" />
    <glyph glyph-name="ecaron" unicode="&#x11b;" horiz-adv-x="392" 
d="M244 575l-20 -141h123l-19 -139h-123l-22 -156h173l-20 -139h-332l101 714h332l-20 -139h-173zM307 755h-112l-136 118h167l35 -45l47 45h167z" />
    <glyph glyph-name="Hbar" unicode="&#x126;" horiz-adv-x="533" 
d="M395 714h159l-14 -96h40l-14 -100h-40l-73 -518h-159l40 280h-107l-40 -280h-159l73 518h-40l14 100h40l14 96h159l-14 -96h107zM246 419h107l14 99h-107z" />
    <glyph glyph-name="hbar" unicode="&#x127;" horiz-adv-x="533" 
d="M395 714h159l-14 -96h40l-14 -100h-40l-73 -518h-159l40 280h-107l-40 -280h-159l73 518h-40l14 100h40l14 96h159l-14 -96h107zM246 419h107l14 99h-107z" />
    <glyph glyph-name="Itilde" unicode="&#x128;" horiz-adv-x="219" 
d="M105 714h159l-101 -714h-159zM99 884c84 -1 98 -40 137 -40c18 0 27 10 31 37h90c-13 -96 -38 -127 -110 -127c-84 0 -97 40 -134 40c-19 0 -30 -10 -34 -38h-90c14 96 38 128 110 128z" />
    <glyph glyph-name="itilde" unicode="&#x129;" horiz-adv-x="219" 
d="M105 714h159l-101 -714h-159zM99 884c84 -1 98 -40 137 -40c18 0 27 10 31 37h90c-13 -96 -38 -127 -110 -127c-84 0 -97 40 -134 40c-19 0 -30 -10 -34 -38h-90c14 96 38 128 110 128z" />
    <glyph glyph-name="Imacron" unicode="&#x12a;" horiz-adv-x="219" 
d="M105 714h159l-101 -714h-159zM20 755l14 100h289l-14 -100h-289z" />
    <glyph glyph-name="imacron" unicode="&#x12b;" horiz-adv-x="219" 
d="M105 714h159l-101 -714h-159zM20 755l14 100h289l-14 -100h-289z" />
    <glyph glyph-name="Ibreve" unicode="&#x12c;" horiz-adv-x="219" 
d="M105 714h159l-101 -714h-159zM205 855h86c-12 -73 -71 -99 -127 -99s-106 25 -98 99h86c-4 -31 -3 -43 20 -43s30 16 33 43z" />
    <glyph glyph-name="ibreve" unicode="&#x12d;" horiz-adv-x="219" 
d="M105 714h159l-101 -714h-159zM205 855h86c-12 -73 -71 -99 -127 -99s-106 25 -98 99h86c-4 -31 -3 -43 20 -43s30 16 33 43z" />
    <glyph glyph-name="Jcircumflex" unicode="&#x134;" horiz-adv-x="476" 
d="M39 245h175c-14 -101 -1 -118 30 -118c23 0 38 15 68 229l50 358h159l-50 -358c-40 -286 -66 -368 -247 -368c-182 0 -210 79 -185 257zM380 873h112l136 -118h-167l-35 45l-47 -45h-167z" />
    <glyph glyph-name="jcircumflex" unicode="&#x135;" horiz-adv-x="476" 
d="M39 245h175c-14 -101 -1 -118 30 -118c23 0 38 15 68 229l50 358h159l-50 -358c-40 -286 -66 -368 -247 -368c-182 0 -210 79 -185 257zM380 873h112l136 -118h-167l-35 45l-47 -45h-167z" />
    <glyph glyph-name="Sacute" unicode="&#x15a;" horiz-adv-x="472" 
d="M296 587c-22 0 -32 -13 -40 -70c-18 -126 211 -118 182 -326c-17 -120 -46 -203 -230 -203c-172 0 -190 109 -169 256h174c-9 -64 -17 -117 14 -117c24 0 32 25 37 65c19 132 -207 115 -177 329c20 147 70 205 232 205c146 0 185 -101 165 -248h-174
c12 87 11 109 -14 109zM346 756h-149l120 118h187z" />
    <glyph glyph-name="sacute" unicode="&#x15b;" horiz-adv-x="472" 
d="M296 587c-22 0 -32 -13 -40 -70c-18 -126 211 -118 182 -326c-17 -120 -46 -203 -230 -203c-172 0 -190 109 -169 256h174c-9 -64 -17 -117 14 -117c24 0 32 25 37 65c19 132 -207 115 -177 329c20 147 70 205 232 205c146 0 185 -101 165 -248h-174
c12 87 11 109 -14 109zM346 756h-149l120 118h187z" />
    <glyph glyph-name="Scircumflex" unicode="&#x15c;" horiz-adv-x="472" 
d="M296 587c-22 0 -32 -13 -40 -70c-18 -126 211 -118 182 -326c-17 -120 -46 -203 -230 -203c-172 0 -190 109 -169 256h174c-9 -64 -17 -117 14 -117c24 0 32 25 37 65c19 132 -207 115 -177 329c20 147 70 205 232 205c146 0 185 -101 165 -248h-174
c12 87 11 109 -14 109zM250 873h112l136 -118h-167l-35 45l-47 -45h-167z" />
    <glyph glyph-name="scircumflex" unicode="&#x15d;" horiz-adv-x="472" 
d="M296 587c-22 0 -32 -13 -40 -70c-18 -126 211 -118 182 -326c-17 -120 -46 -203 -230 -203c-172 0 -190 109 -169 256h174c-9 -64 -17 -117 14 -117c24 0 32 25 37 65c19 132 -207 115 -177 329c20 147 70 205 232 205c146 0 185 -101 165 -248h-174
c12 87 11 109 -14 109zM250 873h112l136 -118h-167l-35 45l-47 -45h-167z" />
    <glyph glyph-name="Scedilla" unicode="&#x15e;" horiz-adv-x="472" 
d="M94 -196l26 58s35 -17 65 -17c25 0 39 6 42 27c2 20 -7 29 -34 29c-17 0 -40 -4 -40 -4l33 93c-145 11 -160 115 -140 254h174c-9 -64 -16 -117 15 -117c24 0 31 25 37 65c18 132 -208 115 -178 329c21 147 71 205 233 205c146 0 184 -101 164 -248h-174
c12 87 11 109 -14 109c-22 0 -32 -13 -40 -70c-17 -126 212 -118 182 -326c-15 -113 -43 -193 -200 -202l-13 -36c37 0 71 -20 63 -81c-8 -57 -50 -89 -119 -89c-41 0 -82 21 -82 21z" />
    <glyph glyph-name="scedilla" unicode="&#x15f;" horiz-adv-x="472" 
d="M94 -196l26 58s35 -17 65 -17c25 0 39 6 42 27c2 20 -7 29 -34 29c-17 0 -40 -4 -40 -4l33 93c-145 11 -160 115 -140 254h174c-9 -64 -16 -117 15 -117c24 0 31 25 37 65c18 132 -208 115 -178 329c21 147 71 205 233 205c146 0 184 -101 164 -248h-174
c12 87 11 109 -14 109c-22 0 -32 -13 -40 -70c-17 -126 212 -118 182 -326c-15 -113 -43 -193 -200 -202l-13 -36c37 0 71 -20 63 -81c-8 -57 -50 -89 -119 -89c-41 0 -82 21 -82 21z" />
    <glyph glyph-name="Scaron" unicode="&#x160;" horiz-adv-x="472" 
d="M296 587c-22 0 -32 -13 -40 -70c-18 -126 211 -118 182 -326c-17 -120 -46 -203 -230 -203c-172 0 -190 109 -169 256h174c-9 -64 -17 -117 14 -117c24 0 32 25 37 65c19 132 -207 115 -177 329c20 147 70 205 232 205c146 0 185 -101 165 -248h-174
c12 87 11 109 -14 109zM346 755h-112l-136 118h167l35 -45l47 45h167z" />
    <glyph glyph-name="scaron" unicode="&#x161;" horiz-adv-x="472" 
d="M296 587c-22 0 -32 -13 -40 -70c-18 -126 211 -118 182 -326c-17 -120 -46 -203 -230 -203c-172 0 -190 109 -169 256h174c-9 -64 -17 -117 14 -117c24 0 32 25 37 65c19 132 -207 115 -177 329c20 147 70 205 232 205c146 0 185 -101 165 -248h-174
c12 87 11 109 -14 109zM346 755h-112l-136 118h167l35 -45l47 45h167z" />
    <glyph glyph-name="Uhungarumlaut" unicode="&#x170;" 
d="M259 756h-99l99 154h147zM448 756h-99l99 154h147zM195 119c60 0 74 40 96 198l56 397h162l-56 -397c-39 -279 -92 -329 -277 -329s-224 50 -185 329l56 397h162l-56 -397c-22 -158 -18 -198 42 -198z" />
    <glyph glyph-name="uhungarumlaut" unicode="&#x171;" 
d="M259 756h-99l99 154h147zM448 756h-99l99 154h147zM195 119c60 0 74 40 96 198l56 397h162l-56 -397c-39 -279 -92 -329 -277 -329s-224 50 -185 329l56 397h162l-56 -397c-22 -158 -18 -198 42 -198z" />
    <glyph glyph-name="Zcaron" unicode="&#x17d;" horiz-adv-x="480" 
d="M408 0h-404l20 139l304 436h-213l20 139h390l-20 -139l-312 -436h235zM360 755h-112l-136 118h167l35 -45l47 45h167z" />
    <glyph glyph-name="uni01E3" unicode="&#x1e3;" horiz-adv-x="666" 
d="M518 575l-20 -141h123l-19 -139h-123l-22 -156h173l-20 -139h-309l17 119h-113l-47 -119h-158l300 714h411l-20 -139h-173zM383 576l-140 -338h93zM323 755l14 100h289l-14 -100h-289z" />
    <glyph glyph-name="Gcaron" unicode="&#x1e6;" horiz-adv-x="520" 
d="M464 0h-51l-6 47c-41 -37 -97 -59 -163 -59c-211 0 -229 89 -190 368c38 270 86 370 293 370c156 0 205 -101 185 -248h-174c9 64 6 109 -38 109c-50 0 -63 -37 -91 -231c-27 -198 -25 -229 25 -229c42 0 60 39 68 101l5 31h-57l18 129h231zM370 755h-112l-136 118h167
l35 -45l47 45h167z" />
    <glyph glyph-name="gcaron" unicode="&#x1e7;" horiz-adv-x="520" 
d="M464 0h-51l-6 47c-41 -37 -97 -59 -163 -59c-211 0 -229 89 -190 368c38 270 86 370 293 370c156 0 205 -101 185 -248h-174c9 64 6 109 -38 109c-50 0 -63 -37 -91 -231c-27 -198 -25 -229 25 -229c42 0 60 39 68 101l5 31h-57l18 129h231zM370 755h-112l-136 118h167
l35 -45l47 45h167z" />
    <glyph glyph-name="uni01E8" unicode="&#x1e8;" horiz-adv-x="529" 
d="M105 714h159l-44 -312l162 311h192l-237 -357l136 -356h-192l-74 313l-44 -313h-159zM374 755h-112l-136 118h167l35 -45l47 45h167z" />
    <glyph glyph-name="uni01E9" unicode="&#x1e9;" horiz-adv-x="529" 
d="M105 714h159l-44 -312l162 311h192l-237 -357l136 -356h-192l-74 313l-44 -313h-159zM374 755h-112l-136 118h167l35 -45l47 45h167z" />
    <glyph glyph-name="uni01EA" unicode="&#x1ea;" 
d="M343 726c215 0 215 -110 179 -370c-30 -214 -56 -321 -173 -355c-3 -3 -30 -27 -35 -61c-3 -24 6 -31 29 -31c54 0 83 32 83 32l8 -67s-48 -39 -104 -39c-73 0 -96 34 -89 80c5 37 22 61 35 74c-12 -1 -24 -1 -37 -1c-215 0 -217 99 -179 368c36 260 68 370 283 370z
M323 587c-50 0 -61 -37 -88 -231c-28 -198 -26 -229 24 -229s60 31 88 229c27 194 26 231 -24 231z" />
    <glyph glyph-name="uni01EB" unicode="&#x1eb;" 
d="M343 726c215 0 215 -110 179 -370c-30 -214 -56 -321 -173 -355c-3 -3 -30 -27 -35 -61c-3 -24 6 -31 29 -31c54 0 83 32 83 32l8 -67s-48 -39 -104 -39c-73 0 -96 34 -89 80c5 37 22 61 35 74c-12 -1 -24 -1 -37 -1c-215 0 -217 99 -179 368c36 260 68 370 283 370z
M323 587c-50 0 -61 -37 -88 -231c-28 -198 -26 -229 24 -229s60 31 88 229c27 194 26 231 -24 231z" />
    <glyph glyph-name="uni01EC" unicode="&#x1ec;" 
d="M338 726c-215 0 -246 -110 -283 -370c-38 -269 -35 -368 180 -368c13 0 25 0 37 1c-13 -13 -30 -37 -36 -74c-6 -46 16 -80 89 -80c56 0 105 39 105 39l-9 67s-29 -32 -83 -32c-23 0 -32 7 -28 31c5 34 31 58 34 61c117 34 143 141 173 355c37 260 36 370 -179 370z
M319 587c50 0 51 -37 23 -231c-28 -198 -38 -229 -88 -229s-52 31 -24 229c28 194 39 231 89 231zM198 755l14 100h289l-14 -100h-289z" />
    <glyph glyph-name="uni01ED" unicode="&#x1ed;" 
d="M338 726c-215 0 -246 -110 -283 -370c-38 -269 -35 -368 180 -368c13 0 25 0 37 1c-13 -13 -30 -37 -36 -74c-6 -46 16 -80 89 -80c56 0 105 39 105 39l-9 67s-29 -32 -83 -32c-23 0 -32 7 -28 31c5 34 31 58 34 61c117 34 143 141 173 355c37 260 36 370 -179 370z
M319 587c50 0 51 -37 23 -231c-28 -198 -38 -229 -88 -229s-52 31 -24 229c28 194 39 231 89 231zM198 755l14 100h289l-14 -100h-289z" />
    <glyph glyph-name="uni01F4" unicode="&#x1f4;" horiz-adv-x="520" 
d="M464 0h-51l-6 47c-41 -37 -97 -59 -163 -59c-211 0 -229 89 -190 368c38 270 86 370 293 370c156 0 205 -101 185 -248h-174c9 64 6 109 -38 109c-50 0 -63 -37 -91 -231c-27 -198 -25 -229 25 -229c42 0 60 39 68 101l5 31h-57l18 129h231zM384 756h-149l120 118h187z
" />
    <glyph glyph-name="uni01F5" unicode="&#x1f5;" horiz-adv-x="520" 
d="M464 0h-51l-6 47c-41 -37 -97 -59 -163 -59c-211 0 -229 89 -190 368c38 270 86 370 293 370c156 0 205 -101 185 -248h-174c9 64 6 109 -38 109c-50 0 -63 -37 -91 -231c-27 -198 -25 -229 25 -229c42 0 60 39 68 101l5 31h-57l18 129h231zM384 756h-149l120 118h187z
" />
    <glyph glyph-name="Oslashacute" unicode="&#x1fe;" horiz-adv-x="538" 
d="M388 756h-149l120 118h187z" />
    <glyph glyph-name="oslashacute" unicode="&#x1ff;" horiz-adv-x="538" 
d="M388 756h-149l120 118h187z" />
    <glyph glyph-name="uni0200" unicode="&#x200;" horiz-adv-x="539" 
d="M490 756h-99l-103 154h147zM301 756h-99l-103 154h147zM207 714h159l59 -714h-159l-2 109h-125l-34 -109h-159zM254 489l-76 -251h82z" />
    <glyph glyph-name="uni0201" unicode="&#x201;" horiz-adv-x="539" 
d="M490 756h-99l-103 154h147zM301 756h-99l-103 154h147zM207 714h159l59 -714h-159l-2 109h-125l-34 -109h-159zM254 489l-76 -251h82z" />
    <glyph glyph-name="uni0204" unicode="&#x204;" horiz-adv-x="392" 
d="M404 756h-99l-103 154h147zM215 756h-99l-103 154h147zM186 575l-20 -141h123l-19 -139h-123l-22 -156h173l-20 -139h-332l101 714h332l-20 -139h-173z" />
    <glyph glyph-name="uni0205" unicode="&#x205;" horiz-adv-x="392" 
d="M404 756h-99l-103 154h147zM215 756h-99l-103 154h147zM186 575l-20 -141h123l-19 -139h-123l-22 -156h173l-20 -139h-332l101 714h332l-20 -139h-173z" />
    <glyph glyph-name="uni0208" unicode="&#x208;" horiz-adv-x="219" 
d="M320 756h-99l-103 154h147zM131 756h-99l-102 154h146zM47 714h159l-101 -714h-159z" />
    <glyph glyph-name="uni0209" unicode="&#x209;" horiz-adv-x="219" 
d="M320 756h-99l-103 154h147zM131 756h-99l-102 154h146zM47 714h159l-101 -714h-159z" />
    <glyph glyph-name="uni020A" unicode="&#x20a;" horiz-adv-x="219" 
d="M105 714h159l-101 -714h-159zM491 756h-86c-3 27 -10 43 -33 43s-24 -12 -20 -43h-86c-8 74 42 99 98 99s115 -26 127 -99z" />
    <glyph glyph-name="uni020B" unicode="&#x20b;" horiz-adv-x="219" 
d="M105 714h159l-101 -714h-159zM491 756h-86c-3 27 -10 43 -33 43s-24 -12 -20 -43h-86c-8 74 42 99 98 99s115 -26 127 -99z" />
    <glyph glyph-name="uni020C" unicode="&#x20c;" 
d="M460 756h-99l-103 154h147zM271 756h-99l-103 154h147zM260 587c-50 0 -61 -37 -89 -231c-27 -198 -26 -229 24 -229s61 31 88 229c28 194 27 231 -23 231zM279 726c215 0 216 -110 179 -370c-37 -269 -67 -368 -282 -368s-217 99 -180 368c37 260 68 370 283 370z" />
    <glyph glyph-name="uni020D" unicode="&#x20d;" 
d="M460 756h-99l-103 154h147zM271 756h-99l-103 154h147zM260 587c-50 0 -61 -37 -89 -231c-27 -198 -26 -229 24 -229s61 31 88 229c28 194 27 231 -23 231zM279 726c215 0 216 -110 179 -370c-37 -269 -67 -368 -282 -368s-217 99 -180 368c37 260 68 370 283 370z" />
    <glyph glyph-name="uni020F" unicode="&#x20f;" 
d="M318 587c-50 0 -61 -37 -89 -231c-27 -198 -26 -229 24 -229s61 31 88 229c28 194 27 231 -23 231zM337 726c215 0 216 -110 179 -370c-37 -269 -67 -368 -282 -368s-217 99 -180 368c37 260 68 370 283 370zM645 756h-86c-3 27 -10 43 -33 43s-24 -12 -20 -43h-86
c-8 74 42 99 98 99s115 -26 127 -99z" />
    <glyph glyph-name="uni0210" unicode="&#x210;" horiz-adv-x="485" 
d="M400 756h-99l-103 154h147zM211 756h-99l-103 154h147zM201 269h-58l-38 -269h-159l101 714h159c187 0 242 -68 221 -218c-11 -82 -35 -142 -85 -170c75 -65 20 -244 29 -326h-159c-4 70 43 207 -11 269zM188 585l-30 -210c77 0 96 20 107 100s0 110 -77 110z" />
    <glyph glyph-name="uni0211" unicode="&#x211;" horiz-adv-x="485" 
d="M400 756h-99l-103 154h147zM211 756h-99l-103 154h147zM201 269h-58l-38 -269h-159l101 714h159c187 0 242 -68 221 -218c-11 -82 -35 -142 -85 -170c75 -65 20 -244 29 -326h-159c-4 70 43 207 -11 269zM188 585l-30 -210c77 0 96 20 107 100s0 110 -77 110z" />
    <glyph glyph-name="uni0215" unicode="&#x215;" 
d="M475 756h-99l-103 154h147zM286 756h-99l-103 154h147zM195 119c60 0 74 40 96 198l56 397h162l-56 -397c-39 -279 -92 -329 -277 -329s-224 50 -185 329l56 397h162l-56 -397c-22 -158 -18 -198 42 -198z" />
    <glyph glyph-name="uni0214" unicode="&#x214;" 
d="M475 756h-99l-103 154h147zM286 756h-99l-103 154h147zM195 119c60 0 74 40 96 198l56 397h162l-56 -397c-39 -279 -92 -329 -277 -329s-224 50 -185 329l56 397h162l-56 -397c-22 -158 -18 -198 42 -198z" />
    <glyph glyph-name="uni0217" unicode="&#x217;" 
d="M253 119c60 0 74 40 96 198l56 397h162l-56 -397c-39 -279 -92 -329 -277 -329s-224 50 -185 329l56 397h162l-56 -397c-22 -158 -18 -198 42 -198zM648 756h-86c-3 27 -10 43 -33 43s-24 -12 -20 -43h-86c-8 74 42 99 98 99s115 -26 127 -99z" />
    <glyph glyph-name="uni0219" unicode="&#x219;" horiz-adv-x="472" 
d="M250 -43l-59 -48s37 -10 33 -36c-4 -33 -64 -68 -64 -68l48 -40s83 36 93 108c8 56 -51 84 -51 84zM305 587c-22 0 -32 -13 -40 -70c-18 -126 211 -118 182 -326c-17 -120 -46 -203 -230 -203c-172 0 -190 109 -169 256h174c-9 -64 -17 -117 14 -117c24 0 32 25 37 65
c19 132 -207 115 -177 329c20 147 70 205 232 205c146 0 185 -101 165 -248h-174c12 87 11 109 -14 109z" />
    <glyph glyph-name="uni021B" unicode="&#x21b;" horiz-adv-x="505" 
d="M258 -43l-59 -48s37 -10 33 -36c-4 -33 -64 -68 -64 -68l48 -40s83 36 93 108c8 56 -51 84 -51 84zM396 575l-81 -575h-159l81 575h-143l20 139h445l-20 -139h-143z" />
    <glyph glyph-name="two" unicode="2" horiz-adv-x="495" 
d="M421 0h-417c49 352 307 344 333 529c6 40 -2 56 -34 56c-30 0 -46 -44 -52 -82h-172c21 148 111 232 245 232c154 0 208 -72 187 -219c-25 -176 -264 -253 -282 -377h211z" />
    <glyph glyph-name="three" unicode="3" horiz-adv-x="500" 
d="M21 116l127 85s24 -72 82 -72c52 0 74 31 81 79c6 47 -8 87 -50 87h-49l17 124h49c42 0 68 40 75 87c6 48 -7 79 -59 79c-58 0 -102 -72 -102 -72l-104 85s76 137 233 137c169 0 212 -104 197 -214c-14 -100 -66 -146 -91 -164c19 -17 59 -61 45 -162
c-16 -110 -89 -216 -258 -216c-157 0 -193 137 -193 137z" />
    <glyph glyph-name="eight" unicode="8" horiz-adv-x="501" 
d="M405 368c0 0 84 -63 67 -184c-20 -137 -92 -205 -249 -205c-146 0 -212 68 -192 205c17 121 117 181 117 181s-63 65 -49 166c17 117 81 195 228 195c136 0 190 -78 173 -195c-14 -101 -95 -163 -95 -163zM252 527c-8 -54 30 -91 30 -91s49 35 57 91c8 57 -8 70 -30 70
s-49 -13 -57 -70zM301 181c9 66 -43 108 -43 108s-55 -51 -63 -108s24 -71 46 -71s52 14 60 71z" />
    <glyph glyph-name="four" unicode="4" horiz-adv-x="514" 
d="M27 161l20 144l280 409h179l-58 -409h53l-20 -144h-53l-23 -161h-159l23 161h-242zM197 305h92l25 179z" />
    <glyph glyph-name="six" unicode="6" horiz-adv-x="509" 
d="M315 596c-43 0 -60 -34 -81 -165c19 8 52 19 89 19c146 0 180 -96 162 -225c-16 -117 -70 -246 -239 -246c-209 0 -227 123 -192 377c35 246 86 379 281 379c152 0 200 -85 179 -232h-172c8 54 5 93 -27 93zM283 310c-25 0 -54 -12 -69 -19c-18 -142 -9 -173 42 -173
c52 0 69 43 77 102c8 58 1 90 -50 90z" />
    <glyph glyph-name="nine" unicode="9" horiz-adv-x="509" 
d="M243 117c42 0 64 55 81 173c0 0 -25 -20 -78 -20c-146 0 -191 89 -173 218c17 117 71 246 240 246c208 0 226 -123 191 -377c-35 -246 -86 -379 -281 -379c-152 0 -200 85 -179 232h172c-8 -54 -6 -93 27 -93zM278 403c39 0 66 20 66 20c19 138 10 172 -41 172
c-52 0 -70 -43 -78 -102c-8 -58 -7 -90 53 -90z" />
    <glyph glyph-name="five" unicode="5" horiz-adv-x="496" 
d="M329 486c106 0 169 -82 145 -251s-83 -256 -267 -256c-134 0 -193 84 -172 232h172c-7 -50 -2 -92 30 -92c41 0 50 27 62 116c13 89 4 125 -37 125c-44 0 -49 -35 -49 -35h-147l55 389h400l-23 -159h-253l-13 -97s37 28 97 28z" />
    <glyph glyph-name="ampersand" unicode="&#x26;" horiz-adv-x="561" 
d="M520 0h-151l-12 24c-40 -23 -86 -36 -134 -36c-125 0 -212 59 -193 196c17 121 126 185 126 185s-60 90 -48 176c13 94 71 181 218 181c136 0 178 -78 162 -195c-18 -128 -140 -194 -140 -194l46 -90c12 29 22 61 26 93h133c-11 -83 -45 -162 -92 -224zM242 125
c20 0 40 4 57 13l-66 131s-45 -29 -52 -81c-7 -47 29 -63 61 -63zM251 527c-5 -42 24 -90 24 -90s56 34 63 90c8 57 -8 71 -30 71s-49 -14 -57 -71z" />
    <glyph glyph-name="longs" unicode="&#x17f;" horiz-adv-x="408" 
d="M35 290l20 139h56l10 74c18 125 85 211 229 211h103l-20 -139h-50c-65 0 -97 -28 -107 -99l-67 -476h-159l41 290h-56z" />
    <glyph glyph-name="uni00AD" unicode="&#xad;" horiz-adv-x="377" 
d="M46 291l17 120h317l-17 -120h-317z" />
    <glyph glyph-name="onequarter" unicode="&#xbc;" horiz-adv-x="677" 
d="M178 714h108l-50 -357h-109l30 214s-31 -35 -77 -35l14 98c49 0 84 80 84 80zM561 714h-109l-311 -714h109zM366 77l11 76l145 204h124l-29 -204h26l-11 -76h-26l-11 -77h-101l11 77h-139zM473 153h43l12 85z" />
    <glyph glyph-name="onehalf" unicode="&#xbd;" horiz-adv-x="675" 
d="M450 714h109l-311 -714h-109zM364 77l11 76l145 204h124l-29 -204h26l-11 -76h-26l-11 -77h-101l11 77h-139zM471 153h43l12 85zM267 357h-212c24 171 140 161 151 239c3 19 0 27 -9 27c-11 0 -19 -21 -22 -40h-89c12 82 51 131 122 131c79 0 110 -40 101 -104
c-14 -100 -111 -124 -118 -170h87z" />
    <glyph glyph-name="threequarters" unicode="&#xbe;" horiz-adv-x="675" 
d="M460 714h109l-311 -714h-109zM364 77l11 76l145 204h124l-29 -204h26l-11 -76h-26l-11 -77h-101l11 77h-139zM471 153h43l12 85zM61 401l67 53s10 -34 39 -34c26 0 35 19 38 37c2 14 -3 34 -24 34h-25l9 62h25c21 0 31 21 33 34c2 18 -1 37 -27 37c-29 0 -48 -33 -48 -33
l-53 53s38 69 117 69c86 0 117 -52 109 -108c-7 -51 -33 -74 -45 -83c10 -8 30 -30 22 -81c-8 -57 -54 -110 -140 -110c-79 0 -97 70 -97 70z" />
    <glyph glyph-name="onesuperior" unicode="&#xb9;" horiz-adv-x="241" 
d="M165 714h108l-50 -357h-109l30 214s-31 -35 -77 -35l14 98c49 0 84 80 84 80z" />
    <glyph glyph-name="threesuperior" unicode="&#xb3;" horiz-adv-x="292" 
d="M49 401l68 53s10 -34 39 -34c26 0 35 19 37 37c2 14 -2 34 -23 34h-25l9 62h25c21 0 30 21 32 34c3 18 0 37 -26 37c-29 0 -48 -33 -48 -33l-54 53s38 69 117 69c86 0 118 -52 110 -108c-7 -51 -34 -74 -46 -83c10 -8 30 -30 23 -81c-8 -57 -55 -110 -141 -110
c-79 0 -97 70 -97 70z" />
    <glyph glyph-name="twosuperior" unicode="&#xb2;" horiz-adv-x="279" 
d="M254 357h-212c24 171 141 161 152 239c2 19 -1 27 -10 27c-11 0 -18 -21 -21 -40h-89c11 82 50 131 121 131c79 0 111 -40 102 -104c-14 -100 -112 -124 -118 -170h87z" />
    </font>
</defs>
</svg>
